<?xml version="1.0" encoding="UTF-8"?>
<svg width="13px" height="16px" viewBox="0 0 13 16" version="1.1" xmlns="http://www.w3.org/2000/svg" xmlns:xlink="http://www.w3.org/1999/xlink">
    <title>delete</title>
    <g id="ONE-UI---B2B-Modules" stroke="none" stroke-width="1" fill="none" fill-rule="evenodd">
        <g id="Hargray_UI/UX_B2B_10" transform="translate(-1109.000000, -263.000000)" fill="#231F20" fill-rule="nonzero">
            <path d="M1117.16429,263.000048 C1117.55832,262.996877 1117.93727,263.151735 1118.21621,263.429837 C1118.49516,263.708084 1118.65096,264.086302 1118.64876,264.480182 L1118.64876,264.480182 L1118.64876,264.948563 L1120.56797,264.948563 C1121.28722,264.948709 1121.89475,265.481932 1121.98787,266.19475 C1122.08085,266.907714 1121.63045,267.578963 1120.93536,267.763388 L1120.93536,267.763388 L1120.93536,276.995328 C1120.93536,277.540992 1120.73519,278.053431 1120.38553,278.42111 C1120.03762,278.789814 1119.55324,278.999122 1119.04616,279 L1119.04616,279 L1111.95384,279 C1111.44691,278.999122 1110.96253,278.789814 1110.61447,278.42111 C1110.26481,278.053431 1110.06464,277.540992 1110.06464,276.995328 L1110.06464,276.995328 L1110.06464,267.763388 C1109.36955,267.578963 1108.91915,266.907714 1109.01213,266.19475 C1109.10525,265.481932 1109.71278,264.948709 1110.43203,264.948563 L1110.43203,264.948563 L1112.35124,264.948563 L1112.35124,264.480182 C1112.34904,264.086302 1112.50484,263.708084 1112.78379,263.429837 C1113.06273,263.151735 1113.44168,262.996877 1113.83571,263.000048 L1113.83571,263.000048 Z M1120.18565,267.796321 L1110.81435,267.796321 L1110.81435,276.995328 C1110.81435,277.700242 1111.31293,278.25059 1111.95384,278.25059 L1111.95384,278.25059 L1119.04616,278.25059 C1119.68707,278.25059 1120.18565,277.700242 1120.18565,276.995328 L1120.18565,276.995328 L1120.18565,267.796321 Z M1117.71163,268.7969 C1117.91868,268.7969 1118.08648,268.964639 1118.08648,269.171605 L1118.08648,269.171605 L1118.08648,276.25353 C1118.08648,276.460349 1117.91868,276.628235 1117.71163,276.628235 C1117.50458,276.628235 1117.33678,276.460349 1117.33678,276.25353 L1117.33678,276.25353 L1117.33678,269.171605 C1117.33678,268.964639 1117.50458,268.7969 1117.71163,268.7969 Z M1113.28837,268.7969 C1113.49542,268.7969 1113.66322,268.964639 1113.66322,269.171605 L1113.66322,269.171605 L1113.66322,276.25353 C1113.66322,276.460349 1113.49542,276.628235 1113.28837,276.628235 C1113.08132,276.628235 1112.91352,276.460349 1112.91352,276.25353 L1112.91352,276.25353 L1112.91352,269.171605 C1112.91352,268.964639 1113.08132,268.7969 1113.28837,268.7969 Z M1115.5,268.7969 C1115.70705,268.7969 1115.87485,268.964639 1115.87485,269.171605 L1115.87485,269.171605 L1115.87485,276.25353 C1115.87485,276.460349 1115.70705,276.628235 1115.5,276.628235 C1115.29295,276.628235 1115.12515,276.460349 1115.12515,276.25353 L1115.12515,276.25353 L1115.12515,269.171605 C1115.12515,268.964639 1115.29295,268.7969 1115.5,268.7969 Z M1120.56797,265.697973 L1110.43203,265.697973 C1110.05937,265.697973 1109.75729,265.999932 1109.75729,266.372442 C1109.75729,266.744951 1110.05937,267.046911 1110.43203,267.046911 L1110.43203,267.046911 L1120.56797,267.046911 C1120.94063,267.046911 1121.24271,266.744951 1121.24271,266.372442 C1121.24271,265.999932 1120.94063,265.697973 1120.56797,265.697973 L1120.56797,265.697973 Z M1117.16429,263.749507 L1113.83571,263.749507 C1113.64038,263.74614 1113.45208,263.821813 1113.3137,263.959547 C1113.17518,264.09728 1113.09846,264.285072 1113.10095,264.480182 L1113.10095,264.480182 L1113.10095,264.948563 L1117.89905,264.948563 L1117.89905,264.480182 C1117.90154,264.285072 1117.82482,264.097134 1117.6863,263.959547 C1117.54792,263.821813 1117.35962,263.74614 1117.16429,263.749507 L1117.16429,263.749507 Z" id="delete"></path>
        </g>
    </g>
</svg>