<?xml version="1.0" encoding="UTF-8"?>
<svg width="16px" height="10px" viewBox="0 0 16 10" version="1.1" xmlns="http://www.w3.org/2000/svg" xmlns:xlink="http://www.w3.org/1999/xlink">
    <title>Combined Shape</title>
    <g id="ONE-UI---B2B-Modules" stroke="none" stroke-width="1" fill="none" fill-rule="evenodd">
        <g id="Hargray_UI/UX_B2B_10" transform="translate(-1011.000000, -266.000000)" fill="#2B2B2B">
            <path d="M1018.99993,266 C1023.34966,266 1026.75539,270.503094 1026.89833,270.694833 C1027.03389,270.876551 1027.03389,271.123449 1026.89833,271.305321 C1026.75539,271.496876 1023.34966,276 1018.99993,276 C1014.6502,276 1011.24431,271.496906 1011.10153,271.305167 C1010.96616,271.123265 1010.96616,270.876551 1011.10153,270.694649 C1011.24431,270.503094 1014.6502,266 1018.99993,266 Z M1018.99993,267.034477 C1015.78901,267.034477 1013.01979,270.021708 1012.19938,270.999648 C1013.02085,271.976729 1015.79589,274.965523 1018.99993,274.965523 C1022.21085,274.965523 1024.98007,271.978261 1025.80048,271.000352 C1024.97867,270.02275 1022.20381,267.034477 1018.99993,267.034477 Z M1018.99993,267.896552 C1020.745,267.896552 1022.16478,269.288798 1022.16478,271.000015 C1022.16478,272.711233 1020.745,274.103478 1018.99993,274.103478 C1017.25486,274.103478 1015.83508,272.711233 1015.83508,271.000015 C1015.83508,269.288798 1017.25486,267.896552 1018.99993,267.896552 Z M1018.99993,268.93106 C1017.83652,268.93106 1016.89005,269.859173 1016.89005,271.000015 C1016.89005,272.140858 1017.83649,273.06897 1018.99993,273.06897 C1020.16337,273.06897 1021.10981,272.140858 1021.10981,271.000015 C1021.10981,269.859173 1020.16334,268.93106 1018.99993,268.93106 Z" id="Combined-Shape"></path>
        </g>
    </g>
</svg>