<?xml version="1.0" encoding="UTF-8"?>
<svg width="48px" height="48px" viewBox="0 0 48 48" version="1.1" xmlns="http://www.w3.org/2000/svg" xmlns:xlink="http://www.w3.org/1999/xlink">
    <title>sfpro_logo@6d</title>
    <g id="Page-1" stroke="none" stroke-width="1" fill="none" fill-rule="evenodd">
        <g id="sfpro_logo" fill-rule="nonzero">
            <path d="M13.0926316,15.3219531 C17.9210526,15.3219531 21.4326316,16.3230057 23.5136842,17.2640583 C22.8821053,22.0324794 21.6947368,22.973532 20.2515789,22.973532 C18.18,22.973532 16.6136842,21.8430057 12.8494737,21.8430057 C10.0263158,21.8430057 8.46,22.6609004 8.46,24.3693215 C8.46,26.3745847 10.4652632,26.6903741 13.3515789,27.1924794 C20.1252632,28.5093215 23.9526316,30.893532 23.9526316,36.7261636 C23.9526316,41.8924794 20.7536842,46.2945847 11.4063158,46.2945847 C6.13894737,46.2945847 2.88,45.4766899 0.985263158,44.033532 C-0.457894737,42.8430057 -0.0789473684,39.9566899 1.55052632,37.0861636 C3.18,38.033532 6.25578947,39.5303741 11.0842105,39.5303741 C14.0305263,39.5303741 16.0389474,39.0314268 16.0389474,37.0230057 C16.0389474,35.0145847 14.2831579,34.5756373 10.08,33.8240583 C4.68631579,32.693532 0.798947368,30.4356373 0.798947368,24.6030057 C0.798947368,18.9598478 5.62736842,15.3219531 13.0926316,15.3219531 Z M40.6357895,1.25984781 C42.4597587,1.24269035 44.2828177,1.34819145 46.0926316,1.57563729 C46.1557895,6.02826886 45.5905263,8.03668992 43.7715789,8.03668992 L40.9484211,8.03668992 C37.5631579,8.03668992 35.8673684,9.54300571 35.8673684,13.3672162 L35.8673684,15.7514268 L43.9578947,15.7514268 C44.4,21.5840583 43.2694737,22.1493215 41.3242105,22.1493215 L35.8673684,22.1493215 L35.8673684,45.7324794 L27.9031579,45.7324794 L27.9031579,12.5493215 C28.3421053,4.14300571 34.3642105,1.25984781 40.6357895,1.25984781 Z M4.54105263,1.00405834 C6.82421053,1.00405834 8.37789474,2.66511097 8.37789474,5.1093215 C8.37789474,7.55353202 6.87473684,9.16090044 4.57578947,9.16090044 C3.29052632,9.16090044 2.32421053,8.6461636 1.73368421,7.71142676 L1.73368421,12.0314268 L-2.84217094e-14,12.0314268 L-2.84217094e-14,1.06405834 L1.73368421,1.06405834 L1.73368421,2.45353202 C2.34038475,1.50030875 3.41258803,0.946718981 4.54105263,1.00405834 Z M19.5947368,1.00405834 C22.0705263,1.00405834 23.7789474,2.6493215 23.7789474,5.08090044 C23.7789474,7.51247939 22.0705263,9.16090044 19.5947368,9.16090044 C17.1189474,9.16090044 15.3947368,7.49984781 15.3947368,5.08090044 C15.3947368,2.66195308 17.1,1.00405834 19.5947368,1.00405834 Z M14.7157895,1.00405834 L14.7157895,2.66511097 C13.0989474,2.57353202 12.0694737,3.52721623 11.9336842,4.90090044 L11.9336842,9.10090044 L10.1968421,9.10090044 L10.1968421,1.06405834 L11.9336842,1.06405834 L11.9336842,2.66511097 C12.4421314,1.60187079 13.538603,0.947223738 14.7157895,1.00405834 Z M19.5947368,2.49774255 C18.1610526,2.49774255 17.1315789,3.55563729 17.1315789,5.09668992 C17.1315789,6.63774255 18.1547368,7.71142676 19.5947368,7.71142676 C21.0284211,7.71142676 22.0421053,6.65353202 22.0421053,5.09668992 C22.0421053,3.53984781 21.0284211,2.49774255 19.5947368,2.49774255 Z M4.18736842,2.4693215 C2.75368421,2.4693215 1.73368421,3.54300571 1.73368421,5.05247939 C1.73368421,6.6093215 2.75052632,7.67984781 4.18736842,7.67984781 L4.18736842,7.69563729 C5.62105263,7.69563729 6.63473684,6.6093215 6.63473684,5.06826886 C6.63473684,3.52721623 5.62105263,2.4693215 4.18736842,2.4693215 Z" id="Combined-Shape" fill="#000000"></path>
            <rect id="Rectangle" fill="#FF005A" x="39.6315789" y="37.3766899" width="8.28" height="8.34315789"></rect>
        </g>
    </g>
</svg>