<?xml version="1.0" encoding="UTF-8"?>
<svg width="49px" height="49px" viewBox="0 0 49 49" version="1.1" xmlns="http://www.w3.org/2000/svg" xmlns:xlink="http://www.w3.org/1999/xlink">
    <title>sfpro@6d</title>
    <g id="Page-1" stroke="none" stroke-width="1" fill="none" fill-rule="evenodd">
        <g id="Group-2" transform="translate(0.510000, 0.567149)" fill-rule="nonzero">
            <g id="Group-3" transform="translate(0.000000, 1.000000)">
                <path d="M13.0926316,14.3219531 C17.9210526,14.3219531 21.4326316,15.3230057 23.5136842,16.2640583 C22.8821053,21.0324794 21.6947368,21.973532 20.2515789,21.973532 C18.18,21.973532 16.6136842,20.8430057 12.8494737,20.8430057 C10.0263158,20.8430057 8.46,21.6609004 8.46,23.3693215 C8.46,25.3745847 10.4652632,25.6903741 13.3515789,26.1924794 C20.1252632,27.5093215 23.9526316,29.893532 23.9526316,35.7261636 C23.9526316,40.8924794 20.7536842,45.2945847 11.4063158,45.2945847 C6.13894737,45.2945847 2.88,44.4766899 0.985263158,43.033532 C-0.457894737,41.8430057 -0.0789473684,38.9566899 1.55052632,36.0861636 C3.18,37.033532 6.25578947,38.5303741 11.0842105,38.5303741 C14.0305263,38.5303741 16.0389474,38.0314268 16.0389474,36.0230057 C16.0389474,34.0145847 14.2831579,33.5756373 10.08,32.8240583 C4.68631579,31.693532 0.798947368,29.4356373 0.798947368,23.6030057 C0.798947368,17.9598478 5.62736842,14.3219531 13.0926316,14.3219531 Z M40.6357895,0.259847812 C42.4597587,0.242690346 44.2828177,0.348191446 46.0926316,0.575637286 C46.1557895,5.02826886 45.5905263,7.03668992 43.7715789,7.03668992 L40.9484211,7.03668992 C37.5631579,7.03668992 35.8673684,8.54300571 35.8673684,12.3672162 L35.8673684,14.7514268 L43.9578947,14.7514268 C44.4,20.5840583 43.2694737,21.1493215 41.3242105,21.1493215 L35.8673684,21.1493215 L35.8673684,44.7324794 L27.9031579,44.7324794 L27.9031579,11.5493215 C28.3421053,3.14300571 34.3642105,0.259847812 40.6357895,0.259847812 Z M4.54105263,0.00405833839 C6.82421053,0.00405833839 8.37789474,1.66511097 8.37789474,4.1093215 C8.37789474,6.55353202 6.87473684,8.16090044 4.57578947,8.16090044 C3.29052632,8.16090044 2.32421053,7.6461636 1.73368421,6.71142676 L1.73368421,11.0314268 L3.55271368e-15,11.0314268 L3.55271368e-15,0.0640583384 L1.73368421,0.0640583384 L1.73368421,1.45353202 C2.34038475,0.500308751 3.41258803,-0.0532810185 4.54105263,0.00405833839 Z M19.5947368,0.00405833839 C22.0705263,0.00405833839 23.7789474,1.6493215 23.7789474,4.08090044 C23.7789474,6.51247939 22.0705263,8.16090044 19.5947368,8.16090044 C17.1189474,8.16090044 15.3947368,6.49984781 15.3947368,4.08090044 C15.3947368,1.66195308 17.1,0.00405833839 19.5947368,0.00405833839 Z M14.7157895,0.00405833839 L14.7157895,1.66511097 C13.0989474,1.57353202 12.0694737,2.52721623 11.9336842,3.90090044 L11.9336842,8.10090044 L10.1968421,8.10090044 L10.1968421,0.0640583384 L11.9336842,0.0640583384 L11.9336842,1.66511097 C12.4421314,0.601870794 13.538603,-0.0527762617 14.7157895,0.00405833839 Z M19.5947368,1.49774255 C18.1610526,1.49774255 17.1315789,2.55563729 17.1315789,4.09668992 C17.1315789,5.63774255 18.1547368,6.71142676 19.5947368,6.71142676 C21.0284211,6.71142676 22.0421053,5.65353202 22.0421053,4.09668992 C22.0421053,2.53984781 21.0284211,1.49774255 19.5947368,1.49774255 Z M4.18736842,1.4693215 C2.75368421,1.4693215 1.73368421,2.54300571 1.73368421,4.05247939 C1.73368421,5.6093215 2.75052632,6.67984781 4.18736842,6.67984781 L4.18736842,6.69563729 C5.62105263,6.69563729 6.63473684,5.6093215 6.63473684,4.06826886 C6.63473684,2.52721623 5.62105263,1.4693215 4.18736842,1.4693215 Z" id="Combined-Shape" fill="#000000"></path>
                <rect id="Rectangle" fill="#FF005A" x="39.6315789" y="36.3766899" width="8.28" height="8.34315789"></rect>
            </g>
        </g>
    </g>
</svg>