<svg xmlns="http://www.w3.org/2000/svg" width="401.914" height="67.576" viewBox="0 0 401.914 67.576"><defs><style>.a{fill:#2e3033;}.a,.b{fill-rule:evenodd;}.b{fill:#ff1659;}</style></defs><g transform="translate(0)"><g transform="translate(0)"><path class="a" d="M377.308,66.512a25.355,25.355,0,0,1-5.3.532c-5.724,0-7.313-1.594-7.313-4.463V36.551c0-5.845-3.921-7.545-8.161-7.545s-8.161,1.807-8.161,7.545V66.726h-12.4V37.188c0-14.345,10.491-18.489,20.56-18.489s20.774,3.506,20.774,18.489ZM298.666,38.145h19.5c-.211-4.783-2.119-9.564-9.433-9.564A9.7,9.7,0,0,0,298.666,38.145ZM310.22,67.576c-14.944,0-24.061-8.819-24.061-24.119,0-15.62,10.175-24.757,22.575-24.757,16.746,0,20.986,11.794,20.986,24.332,0,1.169,0,2.444-.105,3.719H298.666c.212,5.949,4.874,10.2,12.612,10.2,7.42,0,11.129-2.657,13.884-4.992,1.8,2.548,2.862,4.674,2.862,6.374A6.007,6.007,0,0,1,325.9,62.9C323.15,65.449,317.956,67.576,310.22,67.576Zm-51.3-29.752c0-14.554,9.54-18.592,19.61-18.592a59.942,59.942,0,0,1,6.994.32c.107,7.225-.743,10.3-3.6,10.3H278.53c-4.876,0-7.208,2.549-7.208,8.607V66.724h-12.4Zm-28.3-20.079C231.258,4.462,240.8,0,250.548,0a64.134,64.134,0,0,1,8.585.425c.107,7.013-.741,10.2-3.6,10.2h-4.451c-5.406,0-8.056,2.339-8.056,8.394v.532h12.825c.636,9.243-1.061,10.092-4.239,10.092h-8.584V66.724h-12.4V17.744Zm-6.467,41.328c0,5.208-.212,8.287-10.068,8.287-8.692,0-14.626-3.4-14.626-15.511V14.768c0-4.249,3.921-5.631,12.4-7.438v12.22h12.609c.214,9.137-1.059,10.092-4.132,10.092h-8.479V50.149c0,4.888,1.485,6.693,6.042,6.8a39.046,39.046,0,0,0,6.146-.425,22.061,22.061,0,0,1,.107,2.549Zm-54.478-21.25c0-14.554,9.009-18.592,18.654-18.592a53.6,53.6,0,0,1,6.783.32c.107,7.225-.743,10.3-3.6,10.3h-3.178c-4.346,0-6.256,2.444-6.256,8.607V66.724h-12.4v-28.9Zm-27.448,9.137c-8.481,0-9.752,2.339-9.752,5.633,0,3.189,1.8,5.206,9.431,5.206a73.111,73.111,0,0,0,7.633-.32V47.068c-1.377-.109-4.346-.109-7.312-.109Zm-1.168,20.615c-14.307,0-20.667-4.465-20.667-14.768,0-10.519,8.477-14.45,21.09-14.45,4.133,0,6.042,0,8.056.105V36.549c0-5.315-4.771-7.332-8.8-7.332-4.664,0-7.844,1.594-11.129,3.4-2.544,1.061-5.617.53-7.842-7.332,4.237-3.721,11.232-6.589,20.56-6.589,11.236,0,19.29,6.058,19.29,17.744v29.75c-3.073.743-10.706,1.382-20.561,1.382Zm-68.679-.852V36.551c0-5.738-3.708-7.545-7.949-7.545-4.451,0-8.374,1.807-8.374,7.545V66.726H43.66V37.188C43.66,22.207,54.155,18.7,62.634,18.7c8.372,0,13.143,2.337,16,6.481,3.287-4.144,7.526-6.481,15.9-6.481,8.481,0,19.185,3.506,19.185,18.489V66.512a25.355,25.355,0,0,1-5.3.532c-5.724,0-7.313-1.594-7.313-4.463V36.551c0-5.845-3.817-7.545-7.949-7.545-4.346,0-8.374,1.807-8.374,7.545V66.726h-12.4ZM17.7,67.465c-8.267,0-13.355-1.273-16.217-3.5-2.332-1.8-1.8-6.374.85-10.942a28.815,28.815,0,0,0,14.943,3.822c4.664,0,7.738-.85,7.738-3.93,0-3.189-2.757-3.824-9.327-5.1C7.2,46.113,1.054,42.5,1.054,33.362c0-8.925,7.631-14.664,19.29-14.664A42.167,42.167,0,0,1,36.77,21.781c-.952,7.545-2.86,8.925-5.192,8.925-3.178,0-5.722-1.7-11.552-1.7-4.453,0-6.89,1.275-6.89,3.931,0,3.189,3.18,3.613,7.738,4.463,10.491,2.019,16.533,5.843,16.533,14.981,0,8.18-4.981,15.088-19.713,15.088Z" transform="translate(0)"/><path class="b" d="M222.969,45.644h16.787V28.986H222.969Z" transform="translate(162.157 21.08)"/></g></g></svg>