<?xml version="1.0" encoding="UTF-8"?>
<svg width="30px" height="29px" viewBox="0 0 30 29" version="1.1" xmlns="http://www.w3.org/2000/svg" xmlns:xlink="http://www.w3.org/1999/xlink">
    <!-- Generator: Sketch 63.1 (92452) - https://sketch.com -->
    <title>Group 27</title>
    <desc>Created with Sketch.</desc>
    <g id="Page-1" stroke="none" stroke-width="1" fill="none" fill-rule="evenodd">
        <g id="A4" transform="translate(-451.000000, -484.000000)" fill-rule="nonzero">
            <g id="Group-27" transform="translate(451.000000, 484.056859)">
                <path d="M5.7515493,3.82279857 C6.14975855,3.64092734 6.53221328,3.44468991 6.86535211,3.20227543 C8.0762173,2.32104806 8.90891348,0.602657721 10.3636419,0.130323717 C11.7672435,-0.325410689 13.4444668,0.560464562 15,0.560464562 C16.5555332,0.560464562 18.2327565,-0.325410689 19.6363581,0.130323717 C21.0910865,0.602657721 21.9237827,2.32104806 23.1346479,3.20227543 C24.3576459,4.09231567 26.2458954,4.35935792 27.1359356,5.58235591 C28.017163,6.7932211 27.6933803,8.66722513 28.1657746,10.1219535 C28.6215091,11.5255551 30,12.8443479 30,14.3998811 C30,15.9554143 28.6215091,17.274207 28.1657746,18.6778086 C27.6934406,20.132537 28.0172233,22.006541 27.1359356,23.2174062 C26.2458954,24.4404042 24.3575855,24.7074465 23.1346479,25.5974867 C21.9237827,26.4787141 21.0910865,28.1971044 19.6363581,28.6694384 C18.2327565,29.1251728 16.5555332,28.2392976 15,28.2392976 C13.4444668,28.2392976 11.7672435,29.1251728 10.3636419,28.6694384 C8.90891348,28.1971044 8.0762173,26.4787141 6.86535211,25.5974867 C5.64235412,24.7074465 3.75410463,24.4404042 2.86406439,23.2174062 C1.98283702,22.006541 2.30661972,20.132537 1.83428571,18.6778086 C1.37849095,17.274207 0,15.9554143 0,14.3998811 C0,12.8443479 1.37849095,11.5255551 1.83422535,10.1219535 C2.30655936,8.66722513 1.98283702,6.7932211 2.86406439,5.58235591 C3.14486922,5.1965209 3.52503018,4.90587704 3.95227364,4.66074625" id="Path" fill="#00B44B"></path>
                <path d="M27.1597183,14.3998811 C27.1597183,15.6608469 26.0422334,16.7299817 25.6728169,17.8678086 C25.2898793,19.0471044 25.5523944,20.5662392 24.838008,21.5478489 C24.116499,22.5392372 22.5857746,22.755696 21.5943863,23.4772654 C20.6127767,24.1916517 19.9378068,25.5846296 18.7585111,25.9675672 C17.6206841,26.337044 16.2610262,25.6189153 15.0000604,25.6189153 C13.7390946,25.6189153 12.3794366,26.337044 11.2416097,25.9675672 C10.0623139,25.5846899 9.38734406,24.1916517 8.40573441,23.4772654 C7.41434608,22.7557563 5.88362173,22.5392976 5.16205231,21.5478489 C4.447666,20.5662392 4.71012072,19.0471044 4.32724346,17.867869 C3.9577666,16.730042 2.84034205,15.6609676 2.84034205,14.3999414 C2.84034205,13.1389756 3.95782696,12.0698408 4.32724346,10.9320139 C4.71012072,9.75271808 4.447666,8.23358327 5.16205231,7.25203398 C5.88356137,6.26064565 7.41428571,6.0441869 8.40573441,5.32261748 C9.38734406,4.60823116 10.0623139,3.21525329 11.2416097,2.83231567 C12.3794366,2.46283881 13.7390946,3.18096758 15.0000604,3.18096758 C16.2610262,3.18096758 17.6206841,2.46283881 18.7585111,2.83225531 C19.9378068,3.21513257 20.6127767,4.6081708 21.5943863,5.32255712 C22.5857746,6.04406617 24.1165594,6.26052492 24.8380684,7.25197362 C25.5524547,8.23358327 25.29,9.75271808 25.6728773,10.9319535 C26.0422334,12.0697805 27.1597183,13.1389153 27.1597183,14.3998811 L27.1597183,14.3998811 Z" id="Path" fill="#F5F5F5"></path>
                <path d="M28.1657746,10.1219535 C27.6934406,8.66722513 28.0172233,6.7932211 27.1359356,5.58235591 C26.2458954,4.35935792 24.3575855,4.09231567 23.1346479,3.20227543 C21.9237827,2.32104806 21.0910865,0.602657721 19.6363581,0.130323717 C19.0420926,-0.0625937881 18.3987525,-0.0148473092 17.736338,0.104186896 C17.7661569,0.112577238 17.7959759,0.120726131 17.825493,0.130323717 C19.2802213,0.602657721 20.1129175,2.32104806 21.3237827,3.20227543 C22.5467807,4.09231567 24.4350302,4.35935792 25.3250704,5.58235591 C26.2062978,6.7932211 25.8825151,8.66722513 26.3549095,10.1219535 C26.8106439,11.5254947 28.1891348,12.8443479 28.1891348,14.3998811 C28.1891348,15.9554143 26.8106439,17.274207 26.3549095,18.6778086 C25.8825755,20.132537 26.2063581,22.006541 25.3250704,23.2174062 C24.4350302,24.4404042 22.5467203,24.7074465 21.3237827,25.5974867 C20.1129175,26.4787141 19.2802213,28.1971044 17.825493,28.6694384 C17.7959759,28.679036 17.7661569,28.6871849 17.736338,28.6956356 C18.3986922,28.8146094 19.0420926,28.8624163 19.6363581,28.6694384 C21.0910865,28.1971044 21.9237827,26.4787141 23.1346479,25.5974867 C24.3576459,24.7074465 26.2458954,24.4404042 27.1359356,23.2174062 C28.017163,22.006541 27.6934406,20.132537 28.1657746,18.6778086 C28.6215091,17.274207 30,15.9554143 30,14.3998811 C30,12.8443479 28.6215091,11.5254947 28.1657746,10.1219535 Z" id="Path" fill="#00A143"></path>
                <path d="M25.6728169,10.9319535 C25.2899396,9.75265772 25.5523944,8.23352291 24.838008,7.25197362 C24.116499,6.26058529 22.5857746,6.04406617 21.594326,5.32261748 C20.6127163,4.60823116 19.9377465,3.21519293 18.7584507,2.83231567 C18.2127163,2.65509233 17.6159155,2.72825128 17.0034809,2.85217482 C18.1481891,3.26034384 18.8175453,4.61963961 19.7834608,5.32261748 C20.7748491,6.04412653 22.3056338,6.26058529 23.0271429,7.25197362 C23.7415292,8.23358327 23.4790744,9.75271808 23.8619517,10.9319535 C24.2314286,12.0697805 25.3488531,13.1388549 25.3488531,14.3998811 C25.3488531,15.6608469 24.2313682,16.7299817 23.8619517,17.8678086 C23.4790141,19.0471044 23.7415292,20.5662392 23.0271429,21.5477885 C22.3056338,22.5391768 20.7749095,22.755696 19.7835211,23.477205 C18.817666,24.1801225 18.1482495,25.5394183 17.0034809,25.9475873 C17.6159759,26.0715108 18.2127767,26.1446698 18.7585111,25.9675068 C19.9378068,25.5845692 20.6127767,24.1915913 21.5943863,23.477205 C22.5857746,22.755696 24.116499,22.5392372 24.838008,21.5477885 C25.5523944,20.5661788 25.2899396,19.047044 25.6728169,17.8678086 C26.0422334,16.7299817 27.1597183,15.6609072 27.1597183,14.3998811 C27.1597183,13.1388549 26.0422334,12.0697805 25.6728169,10.9319535 Z" id="Path" fill="#80D398"></path>
                <path d="M11.9113883,19.2647704 L9.66392354,16.5606054 C9.32474849,16.1524968 9.38064386,15.5466416 9.78875252,15.2074666 L10.4188129,14.6838247 C10.8269215,14.3446497 11.4327163,14.400545 11.7719517,14.8086537 L12.9042254,16.1710279 C13.1747686,16.4965611 13.6687726,16.5133418 13.9607445,16.2068227 L19.7492354,10.5590964 C20.1152716,10.1748308 20.7234809,10.1601024 21.1076861,10.5261386 L21.7009256,11.0912493 C22.0851911,11.4572855 22.0999195,12.0654947 21.7338833,12.4497 L14.7420121,19.3606255 C13.9597787,20.1817925 12.6362777,20.1370038 11.9113883,19.2647704 Z" id="Path" fill="#00B44B"></path>
                <path d="M21.7009256,11.0912493 L21.1076861,10.5261386 C20.7234205,10.1601024 20.1152113,10.1748911 19.7492354,10.5590964 L19.5428571,10.7604646 L19.8900604,11.0912493 C20.274326,11.4572855 20.2890543,12.0654947 19.9230181,12.4497 L12.9311469,19.3606255 C12.7905634,19.508211 12.6323541,19.6273056 12.4634608,19.7191768 C13.1914286,20.1148509 14.1315091,20.0014907 14.7420121,19.3606255 L21.7339437,12.4497 C22.0999195,12.0654344 22.0851911,11.4572251 21.7009256,11.0912493 L21.7009256,11.0912493 Z" id="Path" fill="#80D398"></path>
            </g>
        </g>
    </g>
</svg>