<?xml version="1.0" encoding="UTF-8"?>
<svg width="30px" height="28px" viewBox="0 0 30 28" version="1.1" xmlns="http://www.w3.org/2000/svg" xmlns:xlink="http://www.w3.org/1999/xlink">
    <!-- Generator: Sketch 63.1 (92452) - https://sketch.com -->
    <title>Group 24</title>
    <desc>Created with Sketch.</desc>
    <g id="Page-1" stroke="none" stroke-width="1" fill="none" fill-rule="evenodd">
        <g id="A4" transform="translate(-180.000000, -287.000000)" fill-rule="nonzero">
            <g id="Group-24" transform="translate(180.000000, 287.000000)">
                <g id="Group-6">
                    <path d="M15.2542373,5.08474576 C14.9734145,5.08474576 14.7457627,4.85709394 14.7457627,4.57627119 C14.7457627,4.29544843 14.9734145,4.06779661 15.2542373,4.06779661 C16.0967056,4.06779661 16.779661,3.38484114 16.779661,2.54237288 C16.779661,1.69990462 16.0967056,1.01694915 15.2542373,1.01694915 C14.9734145,1.01694915 14.7457627,0.78929733 14.7457627,0.508474576 C14.7457627,0.227651822 14.9734145,2.66453526e-14 15.2542373,2.66453526e-14 C16.6583511,2.66453526e-14 17.7966102,1.13825911 17.7966102,2.54237288 C17.7966102,3.94648665 16.6583511,5.08474576 15.2542373,5.08474576 Z" id="Path" fill="#31B1BA"></path>
                    <path d="M5.59322034,5.08474576 C5.31239758,5.08474576 5.08474576,4.85709394 5.08474576,4.57627119 C5.08474576,4.29544843 5.31239758,4.06779661 5.59322034,4.06779661 C6.4356886,4.06779661 7.11864407,3.38484114 7.11864407,2.54237288 C7.11864407,1.69990462 6.4356886,1.01694915 5.59322034,1.01694915 C5.31239758,1.01694915 5.08474576,0.78929733 5.08474576,0.508474576 C5.08474576,0.227651822 5.31239758,2.66453526e-14 5.59322034,2.66453526e-14 C6.99733411,2.66453526e-14 8.13559322,1.13825911 8.13559322,2.54237288 C8.13559322,3.94648665 6.99733411,5.08474576 5.59322034,5.08474576 Z" id="Path" fill="#31B1BA"></path>
                    <path d="M-5.5067062e-14,6.61016949 L23.3898305,6.61016949 L23.3898305,21.8644068 C23.3898305,22.9876978 22.4792232,23.8983051 21.3559322,23.8983051 L2.03389831,23.8983051 C0.910607288,23.8983051 -5.5067062e-14,22.9876978 -5.5067062e-14,21.8644068 L-5.5067062e-14,6.61016949 Z" id="Path" fill="#F9DD9D"></path>
                    <path d="M4.4408921e-14,6.61016949 L20.8474576,6.61016949 L20.8474576,21.8644068 C20.8474576,22.9876978 19.9368503,23.8983051 18.8135593,23.8983051 L2.03389831,23.8983051 C0.910607288,23.8983051 4.4408921e-14,22.9876978 4.4408921e-14,21.8644068 L4.4408921e-14,6.61016949 Z" id="Path" fill="#FFEECF"></path>
                    <path d="M2.03389831,2.54237288 L21.3559322,2.54237288 C22.4792232,2.54237288 23.3898305,3.45298017 23.3898305,4.57627119 L23.3898305,6.61016949 L-5.5067062e-14,6.61016949 L-5.5067062e-14,4.57627119 C-5.5067062e-14,3.45298017 0.910607288,2.54237288 2.03389831,2.54237288 Z" id="Path" fill="#B20942"></path>
                    <path d="M2.03389831,2.54237288 L18.8135593,2.54237288 C19.9368503,2.54237288 20.8474576,3.45298017 20.8474576,4.57627119 L20.8474576,6.61016949 L4.4408921e-14,6.61016949 L4.4408921e-14,4.57627119 C4.4408921e-14,3.45298017 0.910607288,2.54237288 2.03389831,2.54237288 Z" id="Path" fill="#FF1659"></path>
                    <path d="M5.59322034,5.08474576 C4.18910657,5.08474576 3.05084746,3.94648665 3.05084746,2.54237288 C3.05084746,1.13825911 4.18910657,2.70894418e-14 5.59322034,2.70894418e-14 C5.87404309,2.70894418e-14 6.10169492,0.227651822 6.10169492,0.508474576 C6.10169492,0.78929733 5.87404309,1.01694915 5.59322034,1.01694915 C4.75075208,1.01694915 4.06779661,1.69990462 4.06779661,2.54237288 C4.06779661,3.38484114 4.75075208,4.06779661 5.59322034,4.06779661 C5.87404309,4.06779661 6.10169492,4.29544843 6.10169492,4.57627119 C6.10169492,4.85709394 5.87404309,5.08474576 5.59322034,5.08474576 Z" id="Path" fill="#4DCFE0"></path>
                    <path d="M15.2542373,5.08474576 C13.8501235,5.08474576 12.7118644,3.94648665 12.7118644,2.54237288 C12.7118644,1.13825911 13.8501235,2.70894418e-14 15.2542373,2.70894418e-14 C15.53506,2.70894418e-14 15.7627119,0.227651822 15.7627119,0.508474576 C15.7627119,0.78929733 15.53506,1.01694915 15.2542373,1.01694915 C14.411769,1.01694915 13.7288136,1.69990462 13.7288136,2.54237288 C13.7288136,3.38484114 14.411769,4.06779661 15.2542373,4.06779661 C15.53506,4.06779661 15.7627119,4.29544843 15.7627119,4.57627119 C15.7627119,4.85709394 15.53506,5.08474576 15.2542373,5.08474576 Z" id="Path" fill="#4DCFE0"></path>
                    <path d="M9.51209746,9.30146186 C9.41673922,9.20609872 9.28740276,9.15251767 9.15254237,9.15251767 C9.01768199,9.15251767 8.88834552,9.20609872 8.79298729,9.30146186 L8.13559322,9.95885593 L7.47819915,9.30146186 C7.3497425,9.17300519 7.16251283,9.12283715 6.98703776,9.16985555 C6.8115627,9.21687395 6.67450107,9.35393558 6.62748267,9.52941064 C6.58046427,9.70488571 6.63063231,9.89211538 6.75908898,10.020572 L7.41648305,10.6779661 L6.75908898,11.3353602 C6.56051219,11.533937 6.56051219,11.8558935 6.75908898,12.0544703 C6.95766577,12.2530471 7.27962236,12.2530471 7.47819915,12.0544703 L8.13559322,11.3970763 L8.79298729,12.0544703 C8.99156408,12.2530471 9.31352067,12.2530471 9.51209746,12.0544703 C9.71067425,11.8558935 9.71067425,11.533937 9.51209746,11.3353602 L8.85470339,10.6779661 L9.51209746,10.020572 C9.60746061,9.9252138 9.66103548,9.79587733 9.66103548,9.66101695 C9.66103548,9.52615657 9.60746061,9.3968201 9.51209746,9.30146186 Z" id="Path" fill="#FF1659"></path>
                    <path d="M14.0883686,9.30146186 C13.9930104,9.20609872 13.8636739,9.15252385 13.7288136,9.15252385 C13.5939532,9.15252385 13.4646167,9.20609872 13.3692585,9.30146186 L12.7118644,9.95885593 L12.0544703,9.30146186 C11.8558935,9.10288509 11.533937,9.10288509 11.3353602,9.30146188 C11.1367834,9.50003866 11.1367834,9.82199524 11.3353602,10.020572 L11.9927542,10.6779661 L11.3353602,11.3353602 C11.1367834,11.533937 11.1367834,11.8558935 11.3353602,12.0544703 C11.533937,12.2530471 11.8558935,12.2530471 12.0544703,12.0544703 L12.7118644,11.3970763 L13.3692585,12.0544703 C13.5678353,12.2530471 13.8897919,12.2530471 14.0883686,12.0544703 C14.2869454,11.8558935 14.2869454,11.533937 14.0883686,11.3353602 L13.4309746,10.6779661 L14.0883686,10.020572 C14.1837318,9.9252138 14.2373067,9.79587733 14.2373067,9.66101695 C14.2373067,9.52615657 14.1837318,9.3968201 14.0883686,9.30146186 L14.0883686,9.30146186 Z" id="Path" fill="#FF1659"></path>
                    <path d="M18.0072458,10.6779661 L18.6646398,10.020572 C18.7930965,9.89211537 18.8432645,9.70488571 18.7962461,9.52941065 C18.7492277,9.35393559 18.6121661,9.21687397 18.436691,9.16985557 C18.261216,9.12283717 18.0739863,9.1730052 17.9455297,9.30146186 L17.2881356,9.95885593 L16.6307415,9.30146186 C16.5022849,9.1730052 16.3150552,9.12283717 16.1395801,9.16985557 C15.9641051,9.21687397 15.8270435,9.35393559 15.7800251,9.52941065 C15.7330067,9.70488571 15.7831747,9.89211537 15.9116314,10.020572 L16.5690254,10.6779661 L15.9116314,11.3353602 C15.7831747,11.4638168 15.7330067,11.6510465 15.7800251,11.8265215 C15.8270435,12.0019966 15.9641051,12.1390582 16.1395801,12.1860766 C16.3150552,12.233095 16.5022849,12.182927 16.6307415,12.0544703 L17.2881356,11.3970763 L17.9455297,12.0544703 C18.0739863,12.182927 18.261216,12.233095 18.436691,12.1860766 C18.6121661,12.1390582 18.7492277,12.0019966 18.7962461,11.8265215 C18.8432645,11.6510465 18.7930965,11.4638168 18.6646398,11.3353602 L18.0072458,10.6779661 Z" id="Path" fill="#FF1659"></path>
                    <path d="M4.93582627,13.8777331 C4.84046804,13.7823699 4.71113157,13.7287889 4.57627119,13.7287889 C4.4414108,13.7287889 4.31207434,13.7823699 4.2167161,13.8777331 L3.55932203,14.5351271 L2.90192797,13.8777331 C2.77347131,13.7492764 2.58624165,13.6991084 2.41076659,13.7461268 C2.23529153,13.7931452 2.0982299,13.9302068 2.0512115,14.1056818 C2.0041931,14.2811569 2.05436114,14.4683866 2.1828178,14.5968432 L2.84021186,15.2542373 L2.1828178,15.9116314 C1.98424102,16.1102081 1.98424103,16.4321647 2.18281782,16.6307415 C2.3813946,16.8293183 2.70335117,16.8293183 2.90192797,16.6307415 L3.55932203,15.9733475 L4.2167161,16.6307415 C4.34517276,16.7591982 4.53240242,16.8093662 4.70787749,16.7623478 C4.88335256,16.7153294 5.02041419,16.5782678 5.06743259,16.4027927 C5.11445099,16.2273177 5.06428294,16.040088 4.93582627,15.9116314 L4.2784322,15.2542373 L4.93582627,14.5968432 C5.03118942,14.501485 5.08477046,14.3721485 5.08477046,14.2372881 C5.08477046,14.1024278 5.03118942,13.9730913 4.93582627,13.8777331 L4.93582627,13.8777331 Z" id="Path" fill="#FF1659"></path>
                    <path d="M9.51209746,13.8777331 C9.41673922,13.7823699 9.28740276,13.728795 9.15254237,13.728795 C9.01768199,13.728795 8.88834552,13.7823699 8.79298729,13.8777331 L8.13559322,14.5351271 L7.47819915,13.8777331 C7.27962236,13.6791563 6.95766577,13.6791563 6.75908898,13.8777331 C6.56051219,14.0763098 6.56051219,14.3982664 6.75908898,14.5968432 L7.41648305,15.2542373 L6.75908898,15.9116314 C6.56051221,16.1102081 6.56051222,16.4321647 6.75908901,16.6307415 C6.95766579,16.8293183 7.27962236,16.8293183 7.47819915,16.6307415 L8.13559322,15.9733475 L8.79298729,16.6307415 C8.92144395,16.7591982 9.10867361,16.8093662 9.28414867,16.7623478 C9.45962373,16.7153294 9.59668535,16.5782678 9.64370375,16.4027927 C9.69072215,16.2273177 9.64055412,16.040088 9.51209746,15.9116314 L8.85470339,15.2542373 L9.51209746,14.5968432 C9.60746061,14.501485 9.66104163,14.3721485 9.66104163,14.2372881 C9.66104163,14.1024278 9.60746061,13.9730913 9.51209746,13.8777331 L9.51209746,13.8777331 Z" id="Path" fill="#FF1659"></path>
                    <path d="M14.0883686,13.8777331 C13.9930104,13.7823699 13.8636739,13.728795 13.7288136,13.728795 C13.5939532,13.728795 13.4646167,13.7823699 13.3692585,13.8777331 L12.7118644,14.5351271 L12.0544703,13.8777331 C11.8558935,13.6791563 11.533937,13.6791563 11.3353602,13.8777331 C11.1367834,14.0763098 11.1367834,14.3982664 11.3353602,14.5968432 L11.9927542,15.2542373 L11.3353602,15.9116314 C11.1367834,16.1102081 11.1367834,16.4321647 11.3353602,16.6307415 C11.533937,16.8293183 11.8558935,16.8293183 12.0544703,16.6307415 L12.7118644,15.9733475 L13.3692585,16.6307415 C13.5678353,16.8293183 13.8897919,16.8293183 14.0883686,16.6307415 C14.2869454,16.4321647 14.2869454,16.1102081 14.0883686,15.9116314 L13.4309746,15.2542373 L14.0883686,14.5968432 C14.1837318,14.501485 14.2373067,14.3721485 14.2373067,14.2372881 C14.2373067,14.1024278 14.1837318,13.9730913 14.0883686,13.8777331 L14.0883686,13.8777331 Z" id="Path" fill="#FF1659"></path>
                    <path d="M18.6646398,13.8777331 C18.5692816,13.7823699 18.4399451,13.7287889 18.3050847,13.7287889 C18.1702244,13.7287889 18.0408879,13.7823699 17.9455297,13.8777331 L17.2881356,14.5351271 L16.6307415,13.8777331 C16.5022849,13.7492764 16.3150552,13.6991084 16.1395801,13.7461268 C15.9641051,13.7931452 15.8270435,13.9302068 15.7800251,14.1056818 C15.7330067,14.2811569 15.7831747,14.4683866 15.9116314,14.5968432 L16.5690254,15.2542373 L15.9116314,15.9116314 C15.7130546,16.1102081 15.7130546,16.4321647 15.9116314,16.6307415 C16.1102082,16.8293183 16.4321647,16.8293183 16.6307415,16.6307415 L17.2881356,15.9733475 L17.9455297,16.6307415 C18.1441065,16.8293183 18.466063,16.8293183 18.6646398,16.6307415 C18.8632166,16.4321647 18.8632166,16.1102081 18.6646398,15.9116314 L18.0072458,15.2542373 L18.6646398,14.5968432 C18.760003,14.501485 18.8135778,14.3721485 18.8135778,14.2372881 C18.8135778,14.1024278 18.760003,13.9730913 18.6646398,13.8777331 Z" id="Path" fill="#FF1659"></path>
                    <path d="M4.93582627,18.4540042 C4.84046804,18.3586411 4.71113157,18.3050601 4.57627119,18.3050601 C4.4414108,18.3050601 4.31207434,18.3586411 4.2167161,18.4540042 L3.55932203,19.1113983 L2.90192797,18.4540042 C2.77347131,18.3255476 2.58624165,18.2753795 2.41076659,18.3223979 C2.23529153,18.3694163 2.0982299,18.506478 2.0512115,18.681953 C2.0041931,18.8574281 2.05436114,19.0446577 2.1828178,19.1731144 L2.84021186,19.8305085 L2.1828178,20.4879025 C1.98424101,20.6864793 1.98424101,21.0084359 2.1828178,21.2070127 C2.38139459,21.4055895 2.70335118,21.4055895 2.90192797,21.2070127 L3.55932203,20.5496186 L4.2167161,21.2070127 C4.34517276,21.3354694 4.53240242,21.3856374 4.70787749,21.338619 C4.88335256,21.2916006 5.02041419,21.154539 5.06743259,20.9790639 C5.11445099,20.8035889 5.06428294,20.6163592 4.93582627,20.4879025 L4.2784322,19.8305085 L4.93582627,19.1731144 C5.03118942,19.0777562 5.08477046,18.9484197 5.08477046,18.8135593 C5.08477046,18.6786989 5.03118942,18.5493625 4.93582627,18.4540042 Z" id="Path" fill="#FF1659"></path>
                    <path d="M9.51209746,18.4540042 C9.41673922,18.3586411 9.28740276,18.3050662 9.15254237,18.3050662 C9.01768199,18.3050662 8.88834552,18.3586411 8.79298729,18.4540042 L8.13559322,19.1113983 L7.47819915,18.4540042 C7.27962236,18.2554274 6.95766577,18.2554274 6.75908898,18.4540042 C6.56051219,18.652581 6.56051219,18.9745376 6.75908898,19.1731144 L7.41648305,19.8305085 L6.75908898,20.4879025 C6.56051219,20.6864793 6.56051219,21.0084359 6.75908898,21.2070127 C6.95766577,21.4055895 7.27962236,21.4055895 7.47819915,21.2070127 L8.13559322,20.5496186 L8.79298729,21.2070127 C8.92144394,21.3354694 9.10867361,21.3856374 9.28414868,21.338619 C9.45962375,21.2916006 9.59668538,21.154539 9.64370378,20.9790639 C9.69072218,20.8035889 9.64055413,20.6163592 9.51209746,20.4879025 L8.85470339,19.8305085 L9.51209746,19.1731144 C9.60746061,19.0777562 9.66104165,18.9484197 9.66104165,18.8135593 C9.66104165,18.6786989 9.60746061,18.5493625 9.51209746,18.4540042 L9.51209746,18.4540042 Z" id="Path" fill="#FF1659"></path>
                    <path d="M14.0883686,18.4540042 C13.9930104,18.3586411 13.8636739,18.3050662 13.7288136,18.3050662 C13.5939532,18.3050662 13.4646167,18.3586411 13.3692585,18.4540042 L12.7118644,19.1113983 L12.0544703,18.4540042 C11.8558935,18.2554274 11.533937,18.2554274 11.3353602,18.4540042 C11.1367834,18.652581 11.1367834,18.9745376 11.3353602,19.1731144 L11.9927542,19.8305085 L11.3353602,20.4879025 C11.1367834,20.6864793 11.1367834,21.0084359 11.3353602,21.2070127 C11.533937,21.4055895 11.8558935,21.4055895 12.0544703,21.2070127 L12.7118644,20.5496186 L13.3692585,21.2070127 C13.4977151,21.3354694 13.6849448,21.3856374 13.8604199,21.338619 C14.0358949,21.2916006 14.1729566,21.154539 14.219975,20.9790639 C14.2669934,20.8035889 14.2168253,20.6163592 14.0883686,20.4879025 L13.4309746,19.8305085 L14.0883686,19.1731144 C14.1837318,19.0777562 14.2373128,18.9484197 14.2373128,18.8135593 C14.2373128,18.6786989 14.1837318,18.5493625 14.0883686,18.4540042 L14.0883686,18.4540042 Z" id="Path" fill="#FF1659"></path>
                    <rect id="Rectangle" fill="#31B1BA" x="12.7118644" y="12.2033898" width="17.2881356" height="15.2542373" rx="7.62711864"></rect>
                    <circle id="Oval" fill="#4DCFE0" cx="20.3389831" cy="19.8305085" r="7.62711864"></circle>
                    <circle id="Oval" fill="#FFEECF" cx="20.3389831" cy="19.8305085" r="5.59322034"></circle>
                    <path d="M20.3389831,22.8813559 C20.0581603,22.8813559 19.8305085,23.1090078 19.8305085,23.3898305 L19.8305085,23.8983051 C19.8305085,24.1791278 20.0581603,24.4067797 20.3389831,24.4067797 C20.6198058,24.4067797 20.8474576,24.1791278 20.8474576,23.8983051 L20.8474576,23.3898305 C20.8474576,23.1090078 20.6198058,22.8813559 20.3389831,22.8813559 Z" id="Path" fill="#FF1659"></path>
                    <path d="M24.4067797,19.3220339 L23.8983051,19.3220339 C23.6174823,19.3220339 23.3898305,19.5496857 23.3898305,19.8305085 C23.3898305,20.1113312 23.6174823,20.3389831 23.8983051,20.3389831 L24.4067797,20.3389831 C24.6876024,20.3389831 24.9152542,20.1113312 24.9152542,19.8305085 C24.9152542,19.5496857 24.6876024,19.3220339 24.4067797,19.3220339 Z" id="Path" fill="#FF1659"></path>
                    <path d="M20.8474576,18.3922246 L20.8474576,15.7627119 C20.8474576,15.4818891 20.6198058,15.2542373 20.3389831,15.2542373 C20.0581603,15.2542373 19.8305085,15.4818891 19.8305085,15.7627119 L19.8305085,18.3922246 C19.3963288,18.5462675 19.0547421,18.8878543 18.9006992,19.3220339 L16.2711864,19.3220339 C15.9903637,19.3220339 15.7627119,19.5496857 15.7627119,19.8305085 C15.7627119,20.1113312 15.9903637,20.3389831 16.2711864,20.3389831 L18.9006992,20.3389831 C19.137578,21.0087468 19.8054483,21.4263226 20.5113112,21.3459936 C21.217174,21.2656646 21.7741392,20.7086994 21.8544681,20.0028366 C21.9347971,19.2969738 21.5172214,18.6291034 20.8474576,18.3922246 Z" id="Path" fill="#FF1659"></path>
                    <circle id="Oval" fill="#F9DD9D" cx="20.3389831" cy="19.8305085" r="1"></circle>
                </g>
            </g>
        </g>
    </g>
</svg>