<?xml version="1.0" encoding="UTF-8"?>
<svg width="30px" height="19px" viewBox="0 0 30 19" version="1.1" xmlns="http://www.w3.org/2000/svg" xmlns:xlink="http://www.w3.org/1999/xlink">
    <!-- Generator: Sketch 63.1 (92452) - https://sketch.com -->
    <title>Group 8</title>
    <desc>Created with Sketch.</desc>
    <g id="Page-1" stroke="none" stroke-width="1" fill="none" fill-rule="evenodd">
        <g id="A4" transform="translate(-178.000000, -369.000000)" fill-rule="nonzero">
            <g id="Group-8" transform="translate(178.000003, 369.047448)">
                <path d="M24.5073018,8.630462 L23.7452315,2.43985653 L22.3171846,2.61563778 L22.3177706,2.61464169 L19.5492159,1.05657528 C19.2539034,0.890403404 18.9149971,0.818098716 18.5775557,0.849270591 L14.2061104,1.25356747 C13.6687471,1.30325497 13.1885714,1.60987606 12.9174581,2.07651669 L9.83636432,7.37971981 C9.60884479,7.77130184 9.78743854,8.27350887 10.2111299,8.4335284 L10.3371651,8.48110653 C10.579626,8.57268856 10.8288253,8.6257159 11.0779073,8.64645809 L10.6874971,8.98647762 L9.90644245,9.66698544 L7.6849776,11.5619073 C7.28952838,11.90638 7.24845417,12.505794 7.59292682,12.9012432 L7.81827838,13.1593487 C8.2606612,13.6666534 9.03064167,13.7193292 9.53888385,13.2768292 L10.3879073,14.2506573 C10.6639424,14.5676495 11.0683565,14.7078643 11.4568917,14.6600518 C11.6903878,14.6313409 11.9182003,14.534544 12.1084542,14.3681378 L12.9565401,15.3420245 C13.2335714,15.659837 13.6379268,15.7991143 14.026462,15.7513018 C14.2599581,15.7225323 14.4878292,15.6266729 14.6781417,15.4603253 L15.1390401,15.8586456 C15.5815401,16.3668292 16.3523995,16.4193878 16.8606417,15.9768878 L17.4871846,15.4302667 L22.7545284,11.3280011 L22.760212,11.3227862 L24.8384151,11.3207354 L24.5073018,8.630462 Z" id="Path" fill="#F0915A"></path>
                <path d="M22.2498604,9.72792294 L22.2441768,9.73313778 L16.9768331,13.8354034 L16.3502901,14.3820245 C15.8421065,14.8245245 15.0711885,14.7719659 14.6286885,14.2637823 L14.1677901,13.865462 C13.9774776,14.0318097 13.7495479,14.1277276 13.5161104,14.1564386 C13.1275753,14.2042511 12.7232784,14.0649737 12.4461885,13.7471612 L11.5981026,12.7732745 C11.4077901,12.9396222 11.1799776,13.036419 10.9465401,13.0651886 C10.5580049,13.1130011 10.1535909,12.9728448 9.87755573,12.655794 L9.02853229,11.6819659 C8.5934151,12.0608331 7.96693073,12.0755987 7.51792682,11.7538604 C7.28765338,12.101087 7.30605182,12.571712 7.5931026,12.9012432 L7.81845417,13.1593487 C8.26083698,13.6666534 9.03081745,13.7193292 9.53905963,13.2768292 L10.3880831,14.2506573 C10.6641182,14.5676495 11.0685323,14.7078643 11.4570674,14.6600518 C11.6905635,14.6313409 11.9183174,14.534544 12.1086299,14.3681378 L12.9567159,15.3420831 C13.2337471,15.6598956 13.6381026,15.7991729 14.0266378,15.7513604 C14.2601339,15.7225909 14.4880049,15.6267315 14.6783174,15.4603839 L15.1392159,15.8587042 C15.5817159,16.3668878 16.3525753,16.4194464 16.8608174,15.9769464 L17.4873604,15.4303253 L22.7547042,11.3280597 L22.7603878,11.3228448 L24.8385909,11.320794 L24.608669,9.45305965 L22.2498604,9.72792294 Z" id="Path" fill="#D37D42"></path>
                <path d="M23.2090401,12.4056573 L20.3868721,9.97225887 L19.6020674,9.296087 L19.0405049,8.81245419 L16.6260323,6.73120419 L16.9048799,4.35757137 C16.9992159,3.5547784 16.4938448,2.80319637 15.7147823,2.58762997 L10.4515987,1.13128231 C9.8947237,0.977180748 9.30614948,1.23557919 9.04271198,1.74985653 L8.38083698,3.04184872 L5.53974323,2.84901669 L4.81200885,9.04378231 L4.49571979,11.7358722 L7.2612276,11.9197979 L7.26696979,11.9250128 L13.0444307,16.9050714 L13.6740206,17.4482354 C14.1846651,17.8879229 14.9552315,17.831087 15.394919,17.3204425 L16.2374971,16.3427472 C16.4286885,16.5080401 16.6571456,16.602669 16.8908174,16.6301495 C17.279587,16.6758526 17.6831807,16.5342901 17.9584542,16.2149542 L18.8011495,15.23638 C18.9923409,15.4016729 19.2206807,15.4972393 19.4543526,15.5246612 C19.8431221,15.5703643 20.2467745,15.4279229 20.5210518,15.1093487 L21.364626,14.1308331 C21.8752706,14.5705206 22.6449581,14.5135675 23.0845284,14.0038018 L23.3084737,13.7444073 C23.6507784,13.3471417 23.6063643,12.747962 23.2090401,12.4056573 Z" id="Path" fill="#F9DD9D"></path>
                <path d="M23.2090401,12.4056573 L22.3494112,11.6644464 C22.6287862,12.0349347 22.623044,12.5619854 22.307751,12.927962 L22.0700362,13.203294 C21.6033956,13.7444073 20.7863643,13.8048761 20.2442549,13.3381182 L19.3487081,14.3768682 C19.0575557,14.7150128 18.6290596,14.8661847 18.2163253,14.8177276 C17.9682979,14.7886065 17.7258956,14.6871807 17.5229268,14.5116925 L16.6283174,15.5505597 C16.3361104,15.8895245 15.9077315,16.0397589 15.4949971,15.9913018 C15.2469698,15.9621807 15.0044503,15.8616925 14.8014815,15.6862042 L13.9069893,16.7241339 C13.7384737,16.9198956 13.5238448,17.0517901 13.2932784,17.1197589 L13.6740792,17.448294 C14.1847237,17.8879815 14.9552901,17.8311456 15.3949776,17.3205011 L16.2375557,16.3428057 C16.4287471,16.5080987 16.6572042,16.6027276 16.890876,16.6302081 C17.2796456,16.6758526 17.6832393,16.5343487 17.9585128,16.2150128 L18.8012081,15.2364386 C18.9923995,15.4017315 19.2207393,15.4972979 19.4544112,15.5247198 C19.8431807,15.5704229 20.2468331,15.4279815 20.5211104,15.1094073 L21.3646846,14.1308917 C21.8753292,14.5705792 22.6450167,14.5136261 23.084587,14.0038604 L23.3085323,13.7444659 C23.6507784,13.3471417 23.6063643,12.747962 23.2090401,12.4056573 Z" id="Path" fill="#DDBF7A"></path>
                <path d="M21.6503878,13.8050518 L20.1039815,12.4716925 C19.9202901,12.313255 19.6427315,12.3337628 19.4841768,12.5175714 C19.3256807,12.70138 19.3462471,12.97888 19.5300557,13.1373761 L21.0737081,14.4683917 L21.3646846,14.1308917 C21.4808174,14.2309112 21.6107198,14.3038604 21.7467159,14.3530206 C21.847087,14.1743682 21.8115206,13.9439776 21.6503878,13.8050518 Z" id="Path" fill="#DDBF7A"></path>
                <path d="M19.1779073,15.4580401 C19.2837862,15.2784503 19.2498604,15.0435479 19.0863839,14.9025714 L17.6972432,13.7048565 C17.5134346,13.546419 17.2359932,13.5669268 17.0774385,13.7507354 C16.9189424,13.934544 16.9395089,14.212044 17.1233174,14.3705401 L18.5124581,15.568255 C18.513044,15.5687237 18.5136299,15.5691339 18.5142159,15.5696026 L18.8012081,15.2363214 C18.9156417,15.3352862 19.0436104,15.4087042 19.1779073,15.4580401 Z" id="Path" fill="#DDBF7A"></path>
                <path d="M7.40536823,11.913587 L7.07062213,12.3556182 C6.70611042,12.8369659 6.80079792,13.5226886 7.28214557,13.8872589 L7.28214557,13.8872589 C7.76349323,14.2517706 8.44921588,14.1570831 8.8137862,13.6757354 L9.14853229,13.2337042 C9.51304401,12.7523565 9.41835651,12.0666339 8.93700885,11.7020636 L8.93700885,11.7020636 C8.4556612,11.3375518 7.76987995,11.4322393 7.40536823,11.913587 Z" id="Path" fill="#F0915A"></path>
                <path d="M9.44419635,12.843294 L8.8137862,13.6757354 C8.44927448,14.1570831 8.54396198,14.8428057 9.02530963,15.2073761 L9.02530963,15.2073761 C9.50665729,15.5718878 10.1923799,15.4772003 10.5569503,14.9958526 L11.1873604,14.1634112 C11.5518721,13.6820636 11.4571846,12.9963409 10.975837,12.6317706 L10.975837,12.6317706 C10.4944307,12.2672589 9.80870807,12.3619464 9.44419635,12.843294 Z" id="Path" fill="#F0915A"></path>
                <path d="M11.4160518,13.8613604 L10.5568917,14.9958526 C10.1923799,15.4772003 10.2870674,16.1629229 10.7684151,16.5274932 L10.7684151,16.5274932 C11.2497628,16.892005 11.9354854,16.7973175 12.3000557,16.3159698 L13.1592159,15.1814776 C13.5237276,14.70013 13.4290401,14.0144073 12.9476924,13.649837 L12.9476924,13.649837 C12.4663448,13.2852667 11.7806221,13.3800128 11.4160518,13.8613604 Z" id="Path" fill="#F0915A"></path>
                <path d="M13.2090792,15.1156182 L12.3000557,16.3159112 C11.935544,16.7972589 12.0302315,17.4829815 12.5115792,17.8475518 L12.5115792,17.8475518 C12.9929268,18.2120636 13.6786495,18.1173761 14.0432198,17.6360284 L14.9522432,16.4357354 C15.3167549,15.9543878 15.2220674,15.2686651 14.7407198,14.9040948 L14.7407198,14.9040948 C14.2593135,14.5395831 13.5735909,14.6342706 13.2090792,15.1156182 Z" id="Path" fill="#F0915A"></path>
                <path d="M22.3177706,2.61464169 L19.5492159,1.05657528 C19.2539034,0.890403404 18.9149971,0.818098716 18.5775557,0.849270591 L14.2061104,1.25356747 C13.6687471,1.30325497 13.1885714,1.60987606 12.9174581,2.07651669 L9.83636432,7.37971981 C9.60884479,7.77136044 9.78743854,8.27350887 10.2111299,8.4335284 L10.3371651,8.48110653 C11.4665596,8.90766903 12.7420284,8.54468075 13.4775557,7.58743465 L14.658044,6.05110653 C14.658044,6.05110653 17.4956807,9.33663387 20.6198995,5.49973934" id="Path" fill="#F0915A"></path>
                <path d="M29.9967745,12.1485479 L28.5487471,0.385794029 C28.5345089,0.270129966 28.474919,0.164836998 28.383044,0.0931182475 C28.291169,0.0213994975 28.174626,-0.010827065 28.0589034,0.00335262254 L24.6728878,0.42018856 C23.7934542,0.52846981 23.1660909,1.3320245 23.2743721,2.2113995 L24.4371065,11.656712 C24.5371846,12.4698175 25.2315792,13.0674151 26.0308565,13.0674151 C26.0960128,13.0674151 26.1620479,13.0634307 26.2283174,13.0552862 L29.6143331,12.6384503 C29.8551534,12.6087432 30.0264229,12.3894268 29.9967745,12.1485479 Z" id="Path" fill="#0071BC"></path>
                <path d="M29.9967745,12.1485479 L29.8378096,10.8573761 C29.7657393,10.9631378 29.6506612,11.0387237 29.513669,11.0555987 L25.9642354,11.4925323 C25.8947432,11.501087 25.825544,11.5052472 25.7572237,11.5052472 C25.1595674,11.5052472 24.6181026,11.18638 24.3185714,10.6943097 L24.4370479,11.6566534 C24.537126,12.4697589 25.2315206,13.0673565 26.0307979,13.0673565 C26.0959542,13.0673565 26.1619893,13.0633722 26.2282589,13.0552276 L29.6142745,12.6383917 C29.8551534,12.6087432 30.0264229,12.3894268 29.9967745,12.1485479 Z" id="Path" fill="#2E3192"></path>
                <path d="M5.3272237,0.420129966 L1.94120807,0.00329402879 C1.82536823,-0.0109442525 1.70894245,0.0213409038 1.61706745,0.0930596538 C1.52519245,0.164778404 1.4656026,0.270071373 1.45136432,0.385735435 L0.00333697781,12.1485479 C-0.0263114597,12.3894268 0.144958072,12.6087432 0.385778384,12.6383917 L3.77179401,13.0552276 C3.83812213,13.0633722 3.9040401,13.0673565 3.96925495,13.0673565 C4.7684737,13.0673565 5.46292682,12.4697003 5.56300495,11.6566534 L6.72573932,2.2113409 C6.83402057,1.3319659 6.20665729,0.528411216 5.3272237,0.420129966 Z" id="Path" fill="#FF1659"></path>
                <path d="M0.00333697781,12.1485479 L0.162301822,10.8573761 C0.234372134,10.9631378 0.349450259,11.0387237 0.486442447,11.0555987 L4.03587604,11.4925323 C4.10536823,11.501087 4.17456745,11.5052472 4.24288776,11.5052472 C4.84054401,11.5052472 5.38200885,11.18638 5.6815401,10.6943097 L5.56306354,11.6566534 C5.46298542,12.4697589 4.76859088,13.0673565 3.96931354,13.0673565 C3.90415729,13.0673565 3.83812213,13.0633722 3.7718526,13.0552276 L0.385836978,12.6383917 C0.144899478,12.6087432 -0.0263114597,12.3894268 0.00333697781,12.1485479 Z" id="Path" fill="#B20942"></path>
                <g id="Group" transform="translate(1.874997, 9.386146)" fill="#EBEEF2">
                    <circle id="Oval" cx="25.3125" cy="0.878964844" r="1"></circle>
                    <circle id="Oval" cx="0.890039062" cy="0.878964844" r="1"></circle>
                </g>
            </g>
        </g>
    </g>
</svg>