<?xml version="1.0" encoding="UTF-8"?>
<svg width="30px" height="28px" viewBox="0 0 30 28" version="1.1" xmlns="http://www.w3.org/2000/svg" xmlns:xlink="http://www.w3.org/1999/xlink">
    <!-- Generator: Sketch 63.1 (92452) - https://sketch.com -->
    <title>Group 4</title>
    <desc>Created with Sketch.</desc>
    <g id="Page-1" stroke="none" stroke-width="1" fill="none" fill-rule="evenodd">
        <g id="A4" transform="translate(-182.000000, -196.000000)" fill-rule="nonzero">
            <g id="Group-4" transform="translate(182.000000, 196.000000)">
                <path d="M15,4.06248047 C18,4.06248047 20.7499805,5.31246094 22.7500195,7.25003906 L25.6250391,4.37496094 C22.9375195,1.6875 19.1875195,-1.11022302e-14 15,-1.11022302e-14 C10.875,-1.11022302e-14 7.125,1.6875 4.37501953,4.37501953 L7.25003906,7.25003906 C9.25001953,5.25 12,4.06248047 15,4.06248047 Z" id="Path" fill="#F9DD9D"></path>
                <path d="M7.25003906,7.24998047 L4.37501953,4.37496094 C1.6875,7.125 1.77635684e-14,10.875 1.77635684e-14,15 C1.77635684e-14,19.125 1.6875,22.875 4.37501953,25.6249805 L7.25003906,22.7499609 C5.25005859,20.7499805 4.06253906,17.9999414 4.06253906,14.9999414 C4.06248047,12 5.25,9.24996094 7.25003906,7.24998047 Z" id="Path" fill="#06B59B"></path>
                <path d="M25.6249805,4.37496094 L22.7500195,7.24998047 C24.75,9.24996094 25.9375195,12 25.9375195,15 C25.9375195,18 24.6875391,20.7499805 22.7500195,22.7500195 L25.6250391,25.6250391 C28.3125,22.9374609 30,19.1874609 30,15 C30,10.875 28.3125,7.125 25.6249805,4.37496094 Z" id="Path" fill="#B20942"></path>
                <path d="M22.7500195,7.24998047 L20.0000391,9.99996094 C18.6875391,8.74998047 16.9375195,7.93746094 15.0000586,7.93746094 C13.0625977,7.93746094 11.2500586,8.74998047 10.0000781,9.99996094 L10.0000781,9.99996094 L7.24998047,7.24998047 C9.25001953,5.25 12,4.06248047 15,4.06248047 C18,4.06248047 20.7499805,5.25 22.7500195,7.24998047 Z" id="Path" fill="#FFEECF"></path>
                <path d="M15,4.06248047 C18,4.06248047 20.7499805,5.31246094 22.7500195,7.25003906 L25.6250391,4.37496094 C22.9375195,1.6875 19.1875195,-1.11022302e-14 15,-1.11022302e-14 C10.875,-1.11022302e-14 7.125,1.6875 4.37501953,4.37501953 L7.25003906,7.25003906 C9.25001953,5.25 12,4.06248047 15,4.06248047 Z" id="Path" fill="#FFFFFF" opacity="0.3"></path>
                <path d="M22.7500195,7.24998047 L20.0000391,9.99996094 C18.6875391,8.74998047 16.9375195,7.93746094 15.0000586,7.93746094 C13.0625977,7.93746094 11.2500586,8.74998047 10.0000781,9.99996094 L10.0000781,9.99996094 L7.24998047,7.24998047 C9.25001953,5.25 12,4.06248047 15,4.06248047 C18,4.06248047 20.7499805,5.25 22.7500195,7.24998047 Z" id="Path" fill="#FFFFFF" opacity="0.3"></path>
                <path d="M10.0000195,19.9999805 L7.25003906,22.7499609 C5.25005859,20.7499805 4.06253906,17.9999414 4.06253906,14.9999414 C4.06253906,11.9999414 5.31251953,9.24996094 7.25003906,7.24992188 L10.0000195,9.99990234 C8.75003906,11.2498828 7.93751953,13.0624219 7.93751953,14.9998828 C7.875,16.9374609 8.68751953,18.75 10.0000195,19.9999805 Z" id="Path" fill="#29E2DC"></path>
                <path d="M25.9375195,15 C25.9375195,18 24.6875391,20.7499805 22.7500195,22.7500195 L19.9999805,19.9999805 C21.2499609,18.6874805 22.0624805,16.9374609 22.0624805,15 C22.0624805,13.0625391 21.2499609,11.25 19.9999805,10.0000195 L22.7499609,7.25003906 C24.75,9.24996094 25.9375195,12 25.9375195,15 Z" id="Path" fill="#FF1659"></path>
                <path d="M4.37501953,4.37496094 L7.25003906,7.24998047 C5.48077374,9.01919396 4.34734101,11.3753616 4.10937547,13.9722498 L3.98454236,13.9216482 C2.65117847,13.372921 1.4167927,12.7275554 0.303365567,12.000205 C0.901946889,9.07027659 2.35639375,6.44054583 4.37501953,4.37496094 L4.37501953,4.37496094 Z" id="Combined-Shape" fill="#FFFFFF" opacity="0.3"></path>
                <path d="M25.6249805,4.37496094 C27.643836,6.44078088 29.0983841,9.07087508 29.6972037,12.0003242 C28.5832755,12.7275197 27.3488583,13.3729059 26.0154576,13.9216482 L25.8906652,13.9722904 C25.6526598,11.3753616 24.519233,9.01919396 22.7500195,7.24998047 L22.7500195,7.24998047 Z" id="Combined-Shape" fill="#FFFFFF" opacity="0.3"></path>
                <path d="M7.25003906,7.24992187 L10.0000195,9.99990234 C8.75003906,11.2498828 7.93751953,13.0624219 7.93751953,14.9998828 L7.9364132,15.188313 C6.66161548,14.8848295 5.44370497,14.5015292 4.29622285,14.0474396 L4.1116003,13.9722338 C4.36014972,11.375315 5.53607948,9.0191872 7.25003906,7.24992187 Z" id="Combined-Shape" fill="#FFFFFF" opacity="0.3"></path>
                <path d="M22.7499609,7.25003906 C24.5192263,9.01920072 25.652659,11.3753624 25.8906651,13.9722904 L25.7037772,14.0474396 C24.5547895,14.502125 23.3351886,14.8858352 22.0585689,15.1895071 C22.061607,15.1268451 22.0624805,15.0635233 22.0624805,15 C22.0624805,13.0625391 21.2499609,11.25 19.9999805,10.0000195 L22.7499609,7.25003906 Z" id="Combined-Shape" fill="#FFFFFF" opacity="0.3"></path>
                <path d="M24.6250195,9.06246094 L16.5,15.2499609 C16.3750195,15.9999609 15.75,16.4999414 15,16.4999414 C14.1250195,16.4999414 13.4374805,15.8124609 13.4374805,14.9374219 C13.4374805,14.0623828 14.1249609,13.3749023 15,13.3749023 C15.1875,13.3749023 15.3124805,13.3749023 15.4999805,13.4374219 L24.6250195,9.06246094 Z" id="Path" fill="#40596B"></path>
                <path d="M20.3749805,27.9999609 L9.62501953,27.9999609 C8.31251953,27.9999609 7.25003906,26.9374805 7.25003906,25.6249805 L7.25003906,25.6249805 C7.25003906,24.3124805 8.31251953,23.25 9.62501953,23.25 L20.3125195,23.25 C21.6250195,23.25 22.6875,24.3124805 22.6875,25.6249805 L22.6875,25.6249805 C22.7500195,26.9374805 21.6874805,27.9999609 20.3749805,27.9999609 Z" id="Path" fill="#F9DD9D"></path>
                <circle id="Oval" fill="#FFFFFF" cx="15" cy="15.0001758" r="1"></circle>
            </g>
        </g>
    </g>
</svg>