<?xml version="1.0" encoding="UTF-8"?>
<svg width="30px" height="30px" viewBox="0 0 30 30" version="1.1" xmlns="http://www.w3.org/2000/svg" xmlns:xlink="http://www.w3.org/1999/xlink">
    <!-- Generator: Sketch 63.1 (92452) - https://sketch.com -->
    <title>Group 26</title>
    <desc>Created with Sketch.</desc>
    <g id="Page-1" stroke="none" stroke-width="1" fill="none" fill-rule="evenodd">
        <g id="A4" transform="translate(-184.000000, -489.000000)">
            <g id="Group-26" transform="translate(184.000000, 489.000000)">
                <g id="Group-13">
                    <g id="Group-12-Copy">
                        <circle id="Oval" fill="#FF1659" cx="15" cy="15" r="15"></circle>
                        <path d="M26.953563,5.93705854 C28.8653724,8.45473537 30,11.5948645 30,15 C30,23.2842712 23.2842712,30 15,30 C14.1882606,30 13.391581,29.9355211 12.6148036,29.8114056 C21.316829,28.544942 28,21.0529401 28,12 C28,9.90131795 27.6408329,7.88652388 26.9806131,6.01373227 Z" id="Combined-Shape" fill="#B20942"></path>
                    </g>
                    <path d="M20.2941045,14.6268359 C20.2941045,16.1850781 19.6822996,17.6613672 18.5647494,18.7626953 C17.4588486,19.8757422 15.9765218,20.4850391 14.4117868,20.4850391 C12.8470519,20.4850391 11.3646858,19.8757422 10.2588242,18.7626953 C9.14123483,17.6613672 8.52946908,16.1850781 8.52946908,14.6268359 C8.52946908,13.0685156 9.14127406,11.5922266 10.2588242,10.4908984 C11.3646858,9.37785156 12.8470519,8.76863281 14.4117868,8.76863281 C15.400057,8.76863281 16.3646755,9.01464844 17.2353542,9.49503906 L14.9294166,12.2835547 L24,12.2835547 L21.7411304,4 L19.4823392,6.74160156 C17.9647114,5.76917969 16.2234716,5.25367188 14.4117476,5.25367188 C11.8941219,5.25367188 9.52934935,6.22609375 7.75296549,7.99527344 C5.97646396,9.76445312 5,12.1194922 5,14.6268359 C5,17.1341797 5.97646396,19.4891406 7.75296549,21.2583203 C9.52938857,23.0275391 11.8940826,24 14.4117476,24 C16.9294125,24 19.2941066,23.0275391 21.0705297,21.2583203 C22.846992,19.4891406 23.8234952,17.1341797 23.8234952,14.6268359 L23.8234952,14.0410156 L20.2941045,14.0410156 L20.2941045,14.6268359 Z" id="Path" fill="#80D398" fill-rule="nonzero"></path>
                    <path d="M20.1268699,14.0410156 L23.7846748,14.0410156 L23.7846748,14.6268359 C23.7846748,17.1341406 22.7726423,19.4891406 20.9315447,21.2583203 C19.0904878,23.0275391 16.6397561,24 14.0304878,24 L14.0304878,20.4850781 C15.6521545,20.4850781 17.1884553,19.8757812 18.3345528,18.7627344 C19.4928049,17.6614062 20.1268293,16.1851172 20.1268293,14.626875 L20.1268293,14.0410156 L20.1268699,14.0410156 Z" id="Path" fill="#00B44B" fill-rule="nonzero"></path>
                    <path d="M16.956748,9.49503906 C16.0543902,9.01460937 15.0546748,8.76863281 14.0304472,8.76863281 L14.0304472,5.25367187 C15.9080894,5.25367187 17.7126829,5.76917969 19.2855285,6.74164062 L21.6265447,4 L23.9676016,12.2835547 L14.5669919,12.2835547 L16.956748,9.49503906 Z" id="Path" fill="#00B44B" fill-rule="nonzero"></path>
                </g>
            </g>
        </g>
    </g>
</svg>