<?xml version="1.0" encoding="UTF-8"?>
<svg width="29px" height="30px" viewBox="0 0 29 30" version="1.1" xmlns="http://www.w3.org/2000/svg" xmlns:xlink="http://www.w3.org/1999/xlink">
    <!-- Generator: Sketch 63.1 (92452) - https://sketch.com -->
    <title>Group 25</title>
    <desc>Created with Sketch.</desc>
    <g id="Page-1" stroke="none" stroke-width="1" fill="none" fill-rule="evenodd">
        <g id="A4" transform="translate(-180.000000, -442.000000)" fill-rule="nonzero">
            <g id="Group-25" transform="translate(180.000000, 442.000000)">
                <g id="Group-11">
                    <polygon id="Path" fill="#0071BC" points="9.66796875 21.09375 11.4257812 21.09375 11.4257812 24.7265625 9.66796875 24.7265625"></polygon>
                    <polygon id="Path" fill="#0071BC" points="13.1835938 21.09375 14.9414062 21.09375 14.9414062 24.7265625 13.1835938 24.7265625"></polygon>
                    <path d="M25.9277344,9.66796875 L21.9726562,9.66796875 C21.5893945,9.66796875 21.2107617,9.60574219 20.8473047,9.48292969 C20.8447266,9.47601563 18.9391992,4.38773437 18.9365039,4.38052734 C19.5652734,3.30486328 20.7286523,2.63671875 21.9726562,2.63671875 C23.6077734,2.63671875 24.9858398,3.75878906 25.3770703,5.2734375 L25.9277344,5.2734375 C27.1393359,5.2734375 28.125,6.25910156 28.125,7.47070313 C28.125,8.68230469 27.1393359,9.66796875 25.9277344,9.66796875 Z" id="Path" fill="#4DCFE0"></path>
                    <path d="M7.27476562,18.4570313 L2.63671875,18.4570313 C1.18283203,18.4570313 -6.39488462e-14,17.2741992 -6.39488462e-14,15.8203125 C-6.39488462e-14,14.3664258 1.18283203,13.1835938 2.63671875,13.1835938 L4.51142578,13.1835938 C4.80023437,13.5510352 3.18685547,11.4984375 7.27476562,16.6992188 L7.27476562,18.4570313 Z" id="Path" fill="#4DCFE0"></path>
                    <path d="M16.640625,21.3867188 L12.3046875,21.9726562 L7.3828125,21.9726562 L7.3828125,21.0386719 C7.3828125,19.4786133 6.71935547,17.9514844 5.56253906,16.8488672 C3.60316406,14.9813086 2.52667969,12.4624805 2.53129373,9.75632813 C2.53570312,7.20984375 3.52207031,4.79654297 5.30882812,2.96091797 C7.09617187,1.12470703 9.48210937,0.0744726563 12.0271289,0.00380859375 C12.1174805,0.00134765625 12.2075977,0 12.2974219,0 C15.1368164,0 21.4922461,4.38181641 21.4922461,9.77337891 C21.4922461,12.4735547 20.415293,14.9867578 18.4598437,16.8499219 C17.3037891,17.9514844 16.6406836,18.8922656 16.6406836,20.4525586 L16.6406836,21.3867188 L16.640625,21.3867188 Z" id="Path" fill="#FF1659"></path>
                    <path d="M17.2265625,21.0386133 C17.2265625,19.4783203 17.8896094,17.9516016 19.0457227,16.8500391 C21.0011719,14.9867578 22.078125,12.4736133 22.078125,9.7734375 C22.078125,4.38427734 17.6963086,0.0008203125 12.3046875,0.000234375 L12.3046875,21.9726562 L17.2265625,21.9726562 L17.2265625,21.0386133 Z" id="Path" fill="#B20942"></path>
                    <path d="M24.609375,22.8515625 L19.3359375,22.8515625 L19.3359375,21.09375 L24.609375,21.09375 C25.0940625,21.09375 25.4882812,20.6994727 25.4882812,20.2148438 C25.4882812,19.7302148 25.0940625,19.3359375 24.609375,19.3359375 C24.1246875,19.3359375 23.7304688,19.7302148 23.7304688,20.2148438 L21.9726562,20.2148438 C21.9726562,18.760957 23.1554297,17.578125 24.609375,17.578125 C26.0633203,17.578125 27.2460938,18.760957 27.2460938,20.2148438 C27.2460938,21.6687305 26.0633203,22.8515625 24.609375,22.8515625 Z" id="Path" fill="#4DCFE0"></path>
                    <polygon id="Path" fill="#4DCFE0" points="0.87890625 22.8515625 5.2734375 22.8515625 5.2734375 24.609375 0.87890625 24.609375"></polygon>
                    <path d="M13.4960742,29.4140625 L12.3046875,30 L10.5273633,30 C9.08419922,30 7.91015625,28.8258984 7.91015625,27.382793 L7.91015625,23.8476562 L12.3046875,23.8476562 L16.1132812,24.4335938 L16.1132812,26.7968555 C16.1132812,28.2399609 14.9392383,29.4140625 13.4960742,29.4140625 Z" id="Path" fill="#0071BC"></path>
                    <path d="M16.6992188,27.382793 L16.6992188,23.8476562 L12.3046875,23.8476562 L12.3046875,30 L14.0820117,30 C15.5251758,30 16.6992188,28.8258984 16.6992188,27.382793 L16.6992188,27.382793 Z" id="Path" fill="#2E3192"></path>
                    <path d="M14.067832,21.3867188 L12.3043945,21.9726562 L9.95566406,21.9726562 L9.95566406,21.0386719 C9.95566406,19.3422656 9.69931641,17.6974805 9.25236328,16.525957 C7.86808594,12.8974219 7.83755859,7.02017578 9.16125,3.28066406 C10.0773047,0.692578125 11.2898437,0.0713671875 12.1457227,0.0059765625 C12.1983984,0.00205078125 12.2519531,0 12.3046875,0 C13.8379102,0 15.8320312,4.91666016 15.8320312,9.7734375 C15.8320312,12.3352148 15.4550977,14.7336914 14.7706641,16.5270703 C14.3240039,17.6975391 14.067832,18.7560352 14.067832,20.4526758 L14.067832,21.3867188 Z" id="Path" fill="#FFEECF"></path>
                    <path d="M14.6537695,21.0386133 C14.6537695,19.3419727 14.9099414,17.6975391 15.3566016,16.5270703 C16.0410938,14.7336914 16.4179688,12.3351562 16.4179688,9.7734375 C16.4179688,4.92210937 15.0081445,0.0113085937 12.3137109,0.00029296875 L12.3046875,0.00029296875 L12.3046875,21.9726562 L14.6537695,21.9726562 L14.6537695,21.0386133 Z" id="Path" fill="#F9DD9D"></path>
                    <path d="M12.2974219,0 C13.9810509,0 16.9008963,1.54061983 18.9989667,3.91885423 L19,4 C19,8.418278 12.0604136,12 3.5,12 C3.25925938,12 3.01980064,11.9971673 2.78174207,11.9915629 C2.61477946,11.2687152 2.52999169,10.5199801 2.53129373,9.75632813 C2.53570312,7.20984375 3.52207031,4.79654297 5.30882812,2.96091797 C7.09617187,1.12470703 9.48210937,0.0744726563 12.0271289,0.00380859375 C12.1174805,0.00134765625 12.2075977,0 12.2974219,0 Z" id="Combined-Shape" fill="#FFFFFF" opacity="0.304943266"></path>
                    <path d="M12.3046875,0.000234375 C14.7374748,0.00049875955 16.9646698,0.893098819 18.6764995,2.36778798 C18.8888725,2.89517695 19,3.44089035 19,4 C19,6.73028019 16.350024,9.14111002 12.3051561,10.5847041 Z" id="Combined-Shape" fill="#FFFFFF" opacity="0.304943266"></path>
                    <path d="M12.3046875,4.4408921e-15 C13.7418987,4.4408921e-15 15.5840921,4.32017081 15.8091752,8.86155082 C13.9142287,10.1386538 11.2900457,11.1118056 8.25802143,11.6160211 C8.0431292,8.71133265 8.3442316,5.58879259 9.16125,3.28066406 C10.0773047,0.692578125 11.2898437,0.0713671875 12.1457227,0.0059765625 C12.1983984,0.00205078125 12.2519531,4.4408921e-15 12.3046875,4.4408921e-15 Z" id="Combined-Shape" fill="#FFFFFF" opacity="0.304943266"></path>
                    <path d="M14.6537695,21.0386133 C14.6537695,19.3419727 14.9099414,17.6975391 15.3566016,16.5270703 C16.0410938,14.7336914 16.4179688,12.3351562 16.4179688,9.7734375 C16.4179688,4.92210937 15.0081445,0.0113085937 12.3137109,0.00029296875 L12.3046875,0.00029296875 L12.3046875,21.9726562 L14.6537695,21.9726562 L14.6537695,21.0386133 Z" id="Path" fill="#F9DD9D"></path>
                    <path d="M12.3137109,0.00029296875 C14.7628396,0.0103057162 16.1506166,4.06854939 16.3830071,8.45068635 C15.2946331,9.28724949 13.909636,10.0120729 12.3051561,10.5847041 L12.3046875,0.00029296875 Z" id="Combined-Shape" fill="#FFFFFF" opacity="0.304943266"></path>
                </g>
            </g>
        </g>
    </g>
</svg>