<?xml version="1.0" encoding="UTF-8"?>
<svg width="30px" height="30px" viewBox="0 0 30 30" version="1.1" xmlns="http://www.w3.org/2000/svg" xmlns:xlink="http://www.w3.org/1999/xlink">
    <!-- Generator: Sketch 63.1 (92452) - https://sketch.com -->
    <title>Group 23</title>
    <desc>Created with Sketch.</desc>
    <g id="Page-1" stroke="none" stroke-width="1" fill="none" fill-rule="evenodd">
        <g id="A4" transform="translate(-340.000000, -509.000000)" fill-rule="nonzero">
            <g id="Group-23" transform="translate(340.000000, 509.000000)">
                <path d="M17.8383077,3.84236453 L3.44248044,3.84236453 C1.53972762,3.84236453 -1.77635684e-15,5.3773399 -1.77635684e-15,7.27422003 L-1.77635684e-15,22.8735632 C-1.77635684e-15,24.7704433 1.53972762,26.3054187 3.44248044,26.3054187 L12.6808461,26.3054187 L12.9562446,24.7704433 C13.0826775,24.0715928 13.4068966,23.447619 13.9088728,22.9359606 L15.5362272,21.3136289 L4.69429151,21.3136289 C4.18104897,21.3136289 3.75543321,20.8893268 3.75543321,20.3776683 C3.75543321,19.8660099 4.18104897,19.4417077 4.69429151,19.4417077 L16.5864967,19.4417077 C16.8118227,19.4417077 17.0246305,19.529064 17.187366,19.6663383 L21.2807882,15.5980296 L21.2807882,7.27422003 C21.2807882,5.3773399 19.7410606,3.84236453 17.8383077,3.84236453 Z M16.5864967,17.2577997 L4.69429151,17.2577997 C4.18104897,17.2577997 3.75543321,16.8334975 3.75543321,16.3218391 C3.75543321,15.8101806 4.18104897,15.3858785 4.69429151,15.3858785 L16.5864967,15.3858785 C17.0997392,15.3858785 17.525355,15.8101806 17.525355,16.3218391 C17.525355,16.8334975 17.0997392,17.2577997 16.5864967,17.2577997 Z M16.5864967,13.2019704 L4.69429151,13.2019704 C4.18104897,13.2019704 3.75543321,12.7776683 3.75543321,12.2660099 C3.75543321,11.7543514 4.18104897,11.3300493 4.69429151,11.3300493 L16.5864967,11.3300493 C17.0997392,11.3300493 17.525355,11.7543514 17.525355,12.2660099 C17.525355,12.7776683 17.0997392,13.2019704 16.5864967,13.2019704 Z" id="Shape" fill="#4DCFE0"></path>
                <path d="M15.320197,2.50094733 L13.9474548,2.50094733 C13.5356322,1.06290261 12.2128079,-3.46389584e-14 10.6403941,-3.46389584e-14 C9.0679803,-3.46389584e-14 7.74515599,1.06290261 7.33333333,2.50094733 L5.96059113,2.50094733 C5.44893268,2.50094733 5.02463054,2.92610837 5.02463054,3.43880258 L5.02463054,5.93974991 C5.02463054,7.14020462 6.01050903,8.12807882 7.20853859,8.12807882 L14.0722496,8.12807882 C15.2702791,8.12807882 16.2561576,7.14020462 16.2561576,5.93974991 L16.2561576,3.43880258 C16.2561576,2.92610837 15.8318555,2.50094733 15.320197,2.50094733 Z" id="Path" fill="#31B1BA"></path>
                <g id="Group" transform="translate(3.694581, 11.231527)" fill="#FFFFFF">
                    <path d="M13.7243476,0.940281739 C13.7243476,1.45430242 13.3001404,1.88056348 12.7885966,1.88056348 L0.93575097,1.88056348 C0.424207106,1.88056348 0,1.45430242 0,0.940281739 C0,0.426261055 0.424207106,0 0.93575097,0 L12.7885966,0 C13.3001404,0 13.7243476,0.426261055 13.7243476,0.940281739 Z" id="Path"></path>
                    <path d="M13.7243476,5.01483594 C13.7243476,5.52885662 13.3001404,5.95511768 12.7885966,5.95511768 L0.93575097,5.95511768 C0.424207106,5.95511768 0,5.52885662 0,5.01483594 C0,4.50081526 0.424207106,4.0745542 0.93575097,4.0745542 L12.7885966,4.0745542 C13.3001404,4.0745542 13.7243476,4.50081526 13.7243476,5.01483594 Z" id="Path"></path>
                    <path d="M13.3874772,8.37477602 L11.7405555,10.0296719 L0.93575097,10.0296719 C0.424207106,10.0296719 0,9.60341083 0,9.08939014 C0,8.57536946 0.424207106,8.1491084 0.93575097,8.1491084 L12.7885966,8.1491084 C13.0131768,8.1491084 13.2252804,8.23686803 13.3874772,8.37477602 Z" id="Path"></path>
                </g>
                <path d="M5.00724428,3.84236453 L3.44248044,3.84236453 C1.53972762,3.84236453 -8.8817842e-16,5.3773399 -8.8817842e-16,7.27422003 L-8.8817842e-16,22.8735632 C-8.8817842e-16,24.7704433 1.53972762,26.3054187 3.44248044,26.3054187 L10.6403941,26.3054187 L10.6403941,21.3136289 L4.69429151,21.3136289 C4.18104897,21.3136289 3.75543321,20.8893268 3.75543321,20.3776683 C3.75543321,19.8660099 4.18104897,19.4417077 4.69429151,19.4417077 L10.6403941,19.4417077 L10.6403941,17.2577997 L4.69429151,17.2577997 C4.18104897,17.2577997 3.75543321,16.8334975 3.75543321,16.3218391 C3.75543321,15.8101806 4.18104897,15.3858785 4.69429151,15.3858785 L10.6403941,15.3858785 L10.6403941,13.2019704 L4.69429151,13.2019704 C4.18104897,13.2019704 3.75543321,12.7776683 3.75543321,12.2660099 C3.75543321,11.7543514 4.18104897,11.3300493 4.69429151,11.3300493 L10.6403941,11.3300493 L10.6403941,8.21018062 L7.19791365,8.21018062 C5.99617502,8.21018062 5.00724428,7.22430213 5.00724428,6.02627258 L5.00724428,3.84236453 Z" id="Path" fill="#31B1BA"></path>
                <path d="M10.6403941,-3.46389584e-14 C9.0679803,-3.46389584e-14 7.74515599,1.06290261 7.33333333,2.50094733 L5.96059113,2.50094733 C5.44893268,2.50094733 5.02463054,2.92610837 5.02463054,3.43880258 L5.02463054,3.75142099 L5.02463054,5.93974991 C5.02463054,7.14020462 6.01050903,8.12807882 7.20853859,8.12807882 L10.6403941,8.12807882 L10.6403941,-3.46389584e-14 Z" id="Path" fill="#4DCFE0"></path>
                <path d="M10.6403941,11.2315271 L4.64173757,11.2315271 C4.1239588,11.2315271 3.69458128,11.6669951 3.69458128,12.1921182 C3.69458128,12.7172414 4.1239588,13.1527094 4.64173757,13.1527094 L10.6403941,13.1527094 L10.6403941,11.2315271 Z" id="Path" fill="#DEDEDE"></path>
                <path d="M10.6403941,15.2216749 L4.64173757,15.2216749 C4.1239588,15.2216749 3.69458128,15.6571429 3.69458128,16.182266 C3.69458128,16.7073892 4.1239588,17.1428571 4.64173757,17.1428571 L10.6403941,17.1428571 L10.6403941,15.2216749 Z" id="Path" fill="#DEDEDE"></path>
                <path d="M10.6403941,19.3596059 L4.64173757,19.3596059 C4.1239588,19.3596059 3.69458128,19.7950739 3.69458128,20.320197 C3.69458128,20.8453202 4.1239588,21.2807882 4.64173757,21.2807882 L10.6403941,21.2807882 L10.6403941,19.3596059 Z" id="Path" fill="#DEDEDE"></path>
                <path d="M15.7119255,30 C15.4665725,30 15.2274468,29.9027324 15.0518388,29.7256554 C14.8363766,29.5099208 14.7392317,29.2031537 14.7927859,28.9013747 L15.4528726,25.1540772 C15.4852542,24.9657771 15.5774173,24.7911942 15.7119255,24.656516 L24.9593663,15.3973866 C26.0952136,14.2588567 27.2111338,14.5656238 27.8214026,15.176664 L29.36202,16.7192287 C30.21266,17.5709439 30.21266,18.9538899 29.36202,19.8056051 L20.1145792,29.0647344 C19.9800709,29.2006597 19.8057084,29.2916922 19.6164005,29.3253618 L15.8738336,29.9850358 L15.7119255,30 Z" id="Shape" fill="#FFD12B"></path>
                <path d="M26.4778619,14.6305419 C25.9865533,14.6305419 25.4338311,14.843924 24.8760955,15.402483 L15.570058,24.72226 C15.4346975,24.8578204 15.3419505,25.0335469 15.3093637,25.2230804 L14.6450943,28.9949228 C14.5912008,29.2986785 14.6889612,29.6074549 14.9057887,29.8246026 C14.9158154,29.8346441 14.9245888,29.8434304 14.9346155,29.8522167 L28.6699507,16.0953472 L27.7550137,15.1790594 C27.4416791,14.8652622 26.992984,14.6305419 26.4778619,14.6305419 Z" id="Path" fill="#E5BB26"></path>
            </g>
        </g>
    </g>
</svg>