<?xml version="1.0" encoding="UTF-8"?>
<svg width="30px" height="30px" viewBox="0 0 30 30" version="1.1" xmlns="http://www.w3.org/2000/svg" xmlns:xlink="http://www.w3.org/1999/xlink">
    <!-- Generator: Sketch 63.1 (92452) - https://sketch.com -->
    <title>Group 7</title>
    <desc>Created with Sketch.</desc>
    <g id="Page-1" stroke="none" stroke-width="1" fill="none" fill-rule="evenodd">
        <g id="A4" transform="translate(-177.000000, -325.000000)" fill-rule="nonzero">
            <g id="Group-7" transform="translate(177.060000, 325.000000)">
                <path d="M20.565,15.5 L20.565,16.5 C20.5633526,17.0516009 20.1166009,17.4983526 19.565,17.5 L10.565,17.5 C10.0133991,17.4983526 9.5666474,17.0516009 9.565,16.5 L9.565,15.5 L20.565,15.5 Z" id="Path" fill="#F9DD9D"></path>
                <polygon id="Path" fill="#31B1BA" points="9.565 5.5 20.565 5.5 20.565 15.5 9.565 15.5"></polygon>
                <path d="M22.73,22.565 L27.815,20.715 C28.5678586,20.4242392 29.4181626,20.756118 29.775,21.48 C29.9461018,21.8603154 29.9511518,22.2946945 29.788938,22.6788849 C29.6267243,23.0630754 29.3118913,23.3623928 28.92,23.505 L19.78,26.83 C18.9918108,27.1176054 18.1520956,27.2368348 17.315,27.18 L14.94,27.015 C14.1032509,26.956433 13.2635183,27.0739615 12.475,27.36 L10.85,27.95 L8.63,21.845 L8.85,21.67 C9.52343847,21.1353522 10.2779396,20.7116837 11.085,20.415 L11.865,20.135 C13.0196446,19.714141 14.2649139,19.6054818 15.475,19.82 L21.505,20.88 C22.2196379,21.0088424 22.7408665,21.6288522 22.745,22.355 C22.7449814,22.425267 22.7399688,22.4954438 22.73,22.565 L22.73,22.565 Z" id="Path" fill="#FFEECF"></path>
                <path d="M20.565,15.5 L20.565,16.5 C20.5633526,17.0516009 20.1166009,17.4983526 19.565,17.5 L18.565,17.5 C18.0133991,17.4983526 17.5666474,17.0516009 17.565,16.5 L17.565,15.5 L20.565,15.5 Z" id="Path" fill="#000000" opacity="0.118582589"></path>
                <path d="M27.565,15.5 L27.565,16.5 C27.5633526,17.0516009 27.1166009,17.4983526 26.565,17.5 L19.565,17.5 C19.0133991,17.4983526 18.5666474,17.0516009 18.565,16.5 L18.565,15.5 L27.565,15.5 Z" id="Path" fill="#FFEECF"></path>
                <polygon id="Path" fill="#FF1659" points="18.565 9 27.565 9 27.565 15.5 18.565 15.5"></polygon>
                <polygon id="Path" fill="#000000" opacity="0.118582589" points="17.565 9 18.565 9 18.565 15.5 17.565 15.5"></polygon>
                <path d="M18.565,7.5 L17.565,7.5 L17.565,3.5 C17.565,2.11928813 16.4457119,1 15.065,1 C13.6842881,1 12.565,2.11928813 12.565,3.5 L12.565,7.5 L11.565,7.5 L11.565,3.5 C11.565,1.56700338 13.1320034,0 15.065,0 C16.9979966,0 18.565,1.56700338 18.565,3.5 L18.565,7.5 Z" id="Path" fill="#4DCFE0"></path>
                <path d="M23.065,14 C21.6849734,13.9983469 20.5666531,12.8800266 20.565,11.5 L20.565,10.5 L21.565,10.5 L21.565,11.5 C21.565,12.3284271 22.2365729,13 23.065,13 C23.8934271,13 24.565,12.3284271 24.565,11.5 L24.565,10.5 L25.565,10.5 L25.565,11.5 C25.5633469,12.8800266 24.4450266,13.9983469 23.065,14 L23.065,14 Z" id="Path" fill="#C41926"></path>
                <path d="M21.244,24.3595 C21.1266683,24.3595327 21.0095575,24.3493273 20.894,24.329 L15.4775,23.374 L15.6515,22.389 L21.068,23.344 C21.42203,23.4110779 21.7847711,23.2825045 22.0175289,23.00744 C22.2502867,22.7323755 22.3170643,22.3533598 22.1923292,22.0153097 C22.0675941,21.6772596 21.7706372,21.4324561 21.415,21.3745 L15.386,20.311 C14.2629103,20.1135164 13.1076394,20.2147319 12.036,20.6045 L11.2595,20.887 C10.5018386,21.162403 9.79369825,21.5585158 9.1625,22.06 L8.9405,22.236 L8.3175,21.45 L8.539,21.2745 C9.25444366,20.7078365 10.056795,20.2605661 10.915,19.95 L11.6915,19.667 C12.928705,19.2170947 14.2624495,19.1003597 15.559,19.3285 L21.5905,20.392 C22.6127345,20.5710744 23.3281653,21.5022886 23.2378002,22.536148 C23.1474352,23.5700074 22.2813006,24.3629841 21.2435,24.3620009 L21.244,24.3595 Z" id="Path" fill="#F9DD9D"></path>
                <polygon id="Path" fill="#0071BC" points="11.195 28.89 9.52 29.5 5.03 29.5 2.82 23.425 2.65 22.955 8.285 20.905 8.63 21.845 10.85 27.95"></polygon>
                <polygon id="Path" fill="#89D6F8" points="5.03 29.5 1.835 29.5 1.00364161e-13 24.45 2.82 23.425"></polygon>
            </g>
        </g>
    </g>
</svg>