<?xml version="1.0" encoding="UTF-8"?>
<svg width="30px" height="30px" viewBox="0 0 30 30" version="1.1" xmlns="http://www.w3.org/2000/svg" xmlns:xlink="http://www.w3.org/1999/xlink">
    <!-- Generator: Sketch 63.1 (92452) - https://sketch.com -->
    <title>Group 16</title>
    <desc>Created with Sketch.</desc>
    <g id="Page-1" stroke="none" stroke-width="1" fill="none" fill-rule="evenodd">
        <g id="A4" transform="translate(-184.000000, -534.000000)" fill-rule="nonzero">
            <g id="Group-16" transform="translate(184.000000, 534.000000)">
                <circle id="Oval" fill="#FFD400" cx="15" cy="15" r="15"></circle>
                <path d="M30,15 C30,14.7070312 29.9906836,14.4162305 29.9741016,14.1274219 L21.6049805,5.75830078 L21.2109375,6.9140625 L19.9635352,6.85546875 L16.8588281,3.75 L3.75,16.8588281 L6.85546875,19.9635352 L8.37908203,24.2257617 L14.1274219,29.9741016 C14.4162305,29.9906836 14.7070312,30 15,30 C23.2842773,30 30,23.2842773 30,15 Z" id="Path" fill="#FF9F00"></path>
                <path d="M26.25,16.8588281 L26.25,13.1411133 L23.2001367,12.534668 C23.0288086,11.980957 22.8178125,11.4536133 22.540957,10.9394531 L24.2416992,8.39501953 L21.6049805,5.75830078 L19.0605469,7.45904297 C18.5463867,7.1821875 18.0189844,6.97119141 17.465332,6.79986328 L16.8588281,3.75 L13.1411133,3.75 L12.534668,6.79986328 C11.980957,6.97119141 11.4536133,7.1821875 10.9394531,7.45904297 L8.39501953,5.75830078 L5.75830078,8.39501953 L7.45904297,10.9394531 C7.1821875,11.4536133 6.97119141,11.9810156 6.79986328,12.534668 L3.75,13.1411719 L3.75,16.8588867 L6.79986328,17.465332 C6.97119141,18.019043 7.1821875,18.5463867 7.45904297,19.0605469 L5.75830078,21.6049805 L8.39501953,24.2416992 L10.9394531,22.540957 C11.4536133,22.8178125 11.9810156,23.0288086 12.534668,23.2001367 L13.1411719,26.25 L16.8588867,26.25 L17.465332,23.2001367 C18.019043,23.0288086 18.5463867,22.8178125 19.0605469,22.540957 L21.6049805,24.2416992 L24.2416992,21.6049805 L22.540957,19.0605469 C22.8178125,18.5463867 23.0288086,18.0189844 23.2001367,17.465332 L26.25,16.8588281 Z M15,19.6142578 C12.4555664,19.6142578 10.3857422,17.5444336 10.3857422,15 C10.3857422,12.4555664 12.4555664,10.3857422 15,10.3857422 C17.5444336,10.3857422 19.6142578,12.4555664 19.6142578,15 C19.6142578,17.5444336 17.5444336,19.6142578 15,19.6142578 Z" id="Shape" fill="#FF1659"></path>
                <path d="M23.2001367,17.465332 C23.0288086,18.019043 22.8178125,18.5463867 22.540957,19.0605469 L24.2416992,21.6049805 L21.6049805,24.2416992 L19.0605469,22.540957 C18.5463867,22.8178125 18.0189844,23.0288086 17.465332,23.2001367 L16.8588281,26.25 L15,26.25 L15,19.6142578 C17.5444336,19.6142578 19.6142578,17.5444336 19.6142578,15 C19.6142578,12.4555664 17.5444336,10.3857422 15,10.3857422 L15,3.75 L16.8588281,3.75 L17.4652734,6.79986328 C18.0189844,6.97119141 18.5463281,7.1821875 19.0604883,7.45904297 L21.6049219,5.75830078 L24.2416406,8.39501953 L22.540957,10.9394531 C22.8178125,11.4536133 23.0288086,11.9810156 23.2001367,12.534668 L26.25,13.1411719 L26.25,16.8588867 L23.2001367,17.465332 Z" id="Path" fill="#B20942"></path>
            </g>
        </g>
    </g>
</svg>