<?xml version="1.0" encoding="UTF-8"?>
<svg width="30px" height="30px" viewBox="0 0 30 30" version="1.1" xmlns="http://www.w3.org/2000/svg" xmlns:xlink="http://www.w3.org/1999/xlink">
    <!-- Generator: Sketch 63.1 (92452) - https://sketch.com -->
    <title>Group 10</title>
    <desc>Created with Sketch.</desc>
    <g id="Page-1" stroke="none" stroke-width="1" fill="none" fill-rule="evenodd">
        <g id="A4" transform="translate(-178.000000, -398.000000)">
            <g id="Group-10" transform="translate(178.000000, 398.000000)">
                <g id="Group-9" transform="translate(0.000000, -0.000000)">
                    <rect id="Rectangle" fill="#B20942" x="14.0088106" y="0" width="1.58590308" height="10.7048458"></rect>
                    <polygon id="Path-16" fill="#4DCFE0" points="0.0660792952 29.7356828 0.0660792952 24.6475771 14.9339207 9.64757709 29.9339207 24.6475771 29.9339207 29.7356828"></polygon>
                    <polyline id="Path-18" fill="#80D398" points="0 24.7797357 0 19.4273128 5.4185022 14.0088106 8.06167401 16.6519824"></polyline>
                    <polygon id="Path-17" fill="#51CB84" points="24.5814978 14.0088106 29.9339207 19.4273128 29.9339207 24.7797357 21.938326 16.6519824"></polygon>
                    <polygon id="Path-19" fill="#31B1BA" points="4.16299559 20.5506608 7.53303965 24.2511013 10.3744493 22.0704846 14.9339207 26.4977974 19.3612335 22.0704846 21.4757709 24.2511013 25.6387665 20.3524229 29.9339207 24.6475771 29.9339207 29.7356828 0.0660792952 29.7356828 0.0660792952 24.6475771"></polygon>
                    <polyline id="Path-20" fill="#FF1659" points="15.5947137 0 27.3568282 0 23.4581498 3.89867841 27.5550661 8.06167401 15.5947137 8.06167401"></polyline>
                </g>
                <path d="M20.5486961,22.0069039 C20.7117314,22.0069039 20.8524373,21.8915098 20.8831784,21.7314059 C20.9597255,21.3326882 21,20.9210471 21,20.5 C21,20.0789529 20.9597255,19.6673118 20.8831784,19.2685941 C20.8524373,19.1084902 20.7117314,18.9930961 20.5486961,18.9930961 L19.7514902,18.9930961 C19.6064765,18.9930961 19.4780569,18.9010255 19.4299314,18.7642451 C19.3669961,18.5854314 19.2946549,18.4110529 19.2134176,18.2417216 C19.1506353,18.1108804 19.1762275,17.9548549 19.278851,17.8522569 L19.8422098,17.288898 C19.9575529,17.1735549 19.9752941,16.9923961 19.8837843,16.857349 C19.6516706,16.5148118 19.3878725,16.1954961 19.0962902,15.9039137 L19.0960863,15.9037098 C18.8045039,15.6121275 18.4851882,15.3483294 18.142651,15.1162157 C18.0076294,15.0247314 17.8264451,15.0424725 17.711102,15.1577902 L17.1477431,15.721149 C17.0451196,15.8237725 16.8891196,15.8493647 16.7582784,15.7865824 C16.5889725,15.7053451 16.4145941,15.6330039 16.2357549,15.5700686 C16.0989745,15.5219431 16.0069039,15.3935235 16.0069039,15.2485098 L16.0069039,14.4513039 C16.0069039,14.2882686 15.8915098,14.1475627 15.7314059,14.1168216 C15.3326882,14.0402745 14.9210471,14 14.5,14 C14.0789529,14 13.6673118,14.0402745 13.2685941,14.1168216 C13.1084902,14.1475627 12.9930961,14.2882686 12.9930961,14.4513039 L12.9930961,15.2485098 C12.9930961,15.3935235 12.9010255,15.5219431 12.7642451,15.5700686 C12.5854314,15.6330039 12.4110529,15.7053451 12.2417216,15.7865824 C12.1108804,15.8493647 11.9548549,15.8237725 11.8522569,15.721149 L11.288898,15.1577902 C11.1735549,15.0424471 10.9923961,15.0247059 10.857349,15.1162157 C10.5147863,15.3483294 10.1954451,15.6121529 9.90383725,15.9037608 L9.90376078,15.9038118 C9.61215294,16.1954196 9.34832941,16.5147608 9.11621569,16.8573235 C9.02473137,16.9923451 9.04247255,17.1735294 9.1577902,17.2888725 L9.72114902,17.8522314 C9.82377255,17.9548549 9.84936471,18.1108549 9.78658235,18.2416961 C9.7053451,18.411002 9.63300392,18.5853804 9.57006863,18.7642196 C9.52194314,18.901 9.39352353,18.9930706 9.2485098,18.9930706 L8.45130392,18.9930706 C8.28826863,18.9930706 8.14756275,19.1084647 8.11682157,19.2685686 C8.04027451,19.6673118 8,20.0789529 8,20.5 C8,20.9210471 8.04027451,21.3326882 8.11682157,21.7314059 C8.14756275,21.8915098 8.28826863,22.0069039 8.45130392,22.0069039 L9.2485098,22.0069039 C9.39352353,22.0069039 9.52194314,22.0989745 9.57006863,22.2357549 C9.63300392,22.4145686 9.7053451,22.5889471 9.78658235,22.7582784 C9.84936471,22.8891196 9.82377255,23.0451451 9.72114902,23.1477431 L9.1577902,23.711102 C9.04244706,23.8264451 9.02470588,24.0076039 9.11621569,24.142651 C9.34832941,24.4852137 9.61215294,24.8045549 9.90376078,25.0961627 L9.90383725,25.0962137 C10.1954451,25.3878216 10.5147608,25.6516451 10.857349,25.8837588 C10.9923706,25.9752431 11.1735549,25.957502 11.288898,25.8421843 L11.8522569,25.2788255 C11.9548804,25.176202 12.1108804,25.1506098 12.2417216,25.2133922 C12.4110275,25.2946294 12.5854059,25.3669706 12.7642451,25.4299059 C12.9010255,25.4780314 12.9930961,25.606451 12.9930961,25.7514647 L12.9930961,26.5486706 C12.9930961,26.7117059 13.1084902,26.8524118 13.2685941,26.8831529 C13.6673118,26.9597255 14.0789529,27 14.5,27 C14.9210471,27 15.3326882,26.9597255 15.7314059,26.8831784 C15.8915098,26.8524373 16.0069039,26.7117314 16.0069039,26.5486961 L16.0069039,25.7514902 C16.0069039,25.6064765 16.0989745,25.4780569 16.2357549,25.4299314 C16.4145686,25.3669961 16.5889471,25.2946549 16.7582784,25.2134176 C16.8891196,25.1506353 17.0451451,25.1762275 17.1477431,25.278851 L17.711102,25.8422098 C17.8264451,25.9575529 18.0076039,25.9752941 18.142651,25.8837843 C18.4851882,25.6516706 18.8045039,25.3878725 19.0960863,25.0962902 L19.0962902,25.0960863 C19.3878725,24.8045039 19.6516706,24.4851882 19.8837843,24.142651 C19.9752686,24.0076294 19.9575275,23.8264451 19.8422098,23.711102 L19.278851,23.1477431 C19.1762275,23.0451196 19.1506353,22.8891196 19.2134176,22.7582784 C19.2946549,22.5889725 19.3669961,22.4145941 19.4299314,22.2357549 C19.4780569,22.0989745 19.6064765,22.0069039 19.7514902,22.0069039 L20.5486961,22.0069039 Z" id="Path" fill="#B20942" fill-rule="nonzero"></path>
                <path d="M14.5,14 C14.9210471,14 15.3326882,14.0402745 15.7314059,14.1168216 C15.8915098,14.1475627 16.0069039,14.2882686 16.0069039,14.4513039 L16.0069039,14.4513039 L16.0069039,15.2485098 C16.0069039,15.3935235 16.0989745,15.5219431 16.2357549,15.5700686 C16.4145941,15.6330039 16.5889725,15.7053451 16.7582784,15.7865824 C16.8891196,15.8493647 17.0451196,15.8237725 17.1477431,15.721149 L17.1477431,15.721149 L17.711102,15.1577902 C17.8264451,15.0424725 18.0076294,15.0247314 18.142651,15.1162157 C18.4851882,15.3483294 18.8045039,15.6121275 19.0960863,15.9037098 L19.0960863,15.9037098 L19.3097065,16.12773 C19.5177913,16.3566053 19.709699,16.6004461 19.8837843,16.857349 C19.9752941,16.9923961 19.9575529,17.1735549 19.8422098,17.288898 L19.8422098,17.288898 L19.278851,17.8522569 C19.1762275,17.9548549 19.1506353,18.1108804 19.2134176,18.2417216 C19.2946549,18.4110529 19.3669961,18.5854314 19.4299314,18.7642451 L19.345663,18.5425956 C17.4791647,20.622007 14.2148756,22 10.5,22 C9.68966391,22 8.90076758,21.9344325 8.14314222,21.8103197 L8.1364734,21.7970784 L8.1364734,21.7970784 L8.11682157,21.7314059 C8.04027451,21.3326882 8,20.9210471 8,20.5 C8,20.0789529 8.04027451,19.6673118 8.11682157,19.2685686 C8.14756275,19.1084647 8.28826863,18.9930706 8.45130392,18.9930706 L8.45130392,18.9930706 L9.2485098,18.9930706 C9.39352353,18.9930706 9.52194314,18.901 9.57006863,18.7642196 C9.63300392,18.5853804 9.7053451,18.411002 9.78658235,18.2416961 C9.84936471,18.1108549 9.82377255,17.9548549 9.72114902,17.8522314 L9.72114902,17.8522314 L9.1577902,17.2888725 C9.04247255,17.1735294 9.02473137,16.9923451 9.11621569,16.8573235 C9.34832941,16.5147608 9.61215294,16.1954196 9.90376078,15.9038118 L9.90376078,15.9038118 L10.1276726,15.6903258 C10.356567,15.482223 10.600427,15.290301 10.857349,15.1162157 C10.9923961,15.0247059 11.1735549,15.0424471 11.288898,15.1577902 L11.288898,15.1577902 L11.8522569,15.721149 C11.9548549,15.8237725 12.1108804,15.8493647 12.2417216,15.7865824 C12.4110529,15.7053451 12.5854314,15.6330039 12.7642451,15.5700686 C12.9010255,15.5219431 12.9930961,15.3935235 12.9930961,15.2485098 L12.9930961,15.2485098 L12.9930961,14.4513039 C12.9930961,14.2882686 13.1084902,14.1475627 13.2685941,14.1168216 C13.6673118,14.0402745 14.0789529,14 14.5,14 Z" id="Combined-Shape" fill="#FF1659" fill-rule="nonzero"></path>
                <circle id="Oval" fill="#F9DD9D" fill-rule="nonzero" cx="14.5" cy="20.5" r="3.5"></circle>
            </g>
        </g>
    </g>
</svg>