<?xml version="1.0" encoding="UTF-8"?>
<svg width="30px" height="30px" viewBox="0 0 30 30" version="1.1" xmlns="http://www.w3.org/2000/svg" xmlns:xlink="http://www.w3.org/1999/xlink">
    <!-- Generator: Sketch 63.1 (92452) - https://sketch.com -->
    <title>Group 21</title>
    <desc>Created with Sketch.</desc>
    <g id="Page-1" stroke="none" stroke-width="1" fill="none" fill-rule="evenodd">
        <g id="A4" transform="translate(-194.000000, -575.000000)">
            <g id="Group-21" transform="translate(194.000000, 575.000000)">
                <g id="Group" transform="translate(15.000000, 24.000000) scale(-1, 1) translate(-15.000000, -24.000000) translate(0.000000, 18.000000)" fill-rule="nonzero">
                    <path d="M19.115,1.485 C11.287,1.549 12.105,0.875 8.829,4.228 L12.258,7.658 C13.568,6.382 14.198,5.45 15.071,5.6 L18.843,5.6 C21.801,5.75 21.973,1.636 19.115,1.485 Z" id="Path" fill="#FAB991"></path>
                    <path d="M28.999,0.516 C28.463,-0.02 27.595,-0.02 27.059,0.516 L21.975,5.6 C12.585,5.697 15.132,4.962 12.258,7.657 L14.315,9.714 L15.686,8.343 C21.481,8.294 23.044,8.61 23.721,7.733 C29.024,2.301 30.184,2.003 28.999,0.516 Z" id="Path" fill="#F0915A"></path>
                    <path d="M19.115,4.685 C17.995,4.752 17.935,4.363 17.972,3.273 C17.892,2.317 18.772,2.303 19.49,2.463 C20.76,2.941 20.33,4.68 19.115,4.685 Z" id="Path" fill="#FFAA80"></path>
                    <path d="M8.628,4.028 L12.258,7.658 L8.828,11.085 L0.6,11.085 C8.083,3.702 7.818,3.41 8.628,4.028 Z" id="Path" fill="#0071BC"></path>
                    <path d="M12.258,7.658 C14.364,9.845 15.318,10.224 14.315,11.086 L8.829,11.086 L12.258,7.657 L12.258,7.658 Z" id="Path" fill="#2E3192"></path>
                </g>
                <g id="Group-20">
                    <path d="" id="Path-23" stroke="#979797"></path>
                    <circle id="Oval-Copy" fill="#FFC112" cx="8.5" cy="14.5" r="4.5"></circle>
                    <path d="M8.76086957,10 C11.1020767,10 13,11.8903516 13,14.2222184 C13,14.8574098 12.8591748,15.4598409 12.6069251,16.0002284 C9.99840527,15.603304 8,13.3588832 8,10.6495721 C8,10.4513627 8.01069582,10.2556414 8.03154397,10.0629497 C8.268548,10.0213245 8.51220851,10 8.76086957,10 Z" id="Combined-Shape" fill="#FFAF22"></path>
                    <path d="M7.11361207,4.8081835 L7.11285768,4.80844579 L7.11285768,4.80844579 L7.11311997,4.8076914 C7.55130605,3.54740375 7.55164237,2.17616509 7.11407455,0.915662651 L7.11407455,0.915662651 L7.11407455,0.915662651 C8.37457699,1.35323047 9.74581565,1.35289415 11.0061033,0.914708068 L11.0068577,0.914445776 L11.0068577,0.914445776 L11.0065954,0.915200167 C10.5684093,2.17548782 10.568073,3.54672647 11.0056408,4.80722892 L11.0056408,4.80722892 L11.0056408,4.80722892 C9.74513837,4.3696611 8.37389972,4.36999741 7.11361207,4.8081835 Z" id="Star" fill="#FEDB10" transform="translate(9.059858, 2.861446) rotate(-315.000000) translate(-9.059858, -2.861446) "></path>
                    <path d="M1.6159784,6.18139671 L1.61544589,6.18158186 L1.61544589,6.18158186 L1.61563104,6.18104935 C1.92493886,5.29143454 1.92517626,4.32350137 1.61630486,3.43373494 L1.61630486,3.43373494 L1.61630486,3.43373494 C2.50607129,3.74260634 3.47400446,3.74236894 4.36361927,3.43306112 L4.36415178,3.43287597 L4.36415178,3.43287597 L4.36396664,3.43340848 C4.05465881,4.32302329 4.05442141,5.29095646 4.36329281,6.18072289 L4.36329281,6.18072289 L4.36329281,6.18072289 C3.47352638,5.87185149 2.50559321,5.87208889 1.6159784,6.18139671 Z" id="Star-Copy" fill="#FEDB10" transform="translate(2.989799, 4.807229) rotate(-315.000000) translate(-2.989799, -4.807229) "></path>
                    <path d="M5.28091959,8.92838467 L5.28038708,8.92856981 L5.28038708,8.92856981 L5.28057223,8.9280373 C5.58988005,8.03842249 5.59011745,7.07048932 5.28124605,6.18072289 L5.28124605,6.18072289 L5.28124605,6.18072289 C6.17101248,6.48959429 7.13894565,6.48935689 8.02856046,6.18004907 L8.02909297,6.17986392 L8.02909297,6.17986392 L8.02890783,6.18039643 C7.7196,7.07001124 7.7193626,8.03794441 8.028234,8.92771084 L8.028234,8.92771084 L8.028234,8.92771084 C7.13846757,8.61883944 6.17053441,8.61907684 5.28091959,8.92838467 Z" id="Star-Copy-2" fill="#FEDB10" transform="translate(6.654740, 7.554217) rotate(-315.000000) translate(-6.654740, -7.554217) "></path>
                    <circle id="Oval" fill="#FEDB10" cx="14" cy="10" r="5"></circle>
                </g>
                <path d="M11.7,11.49 L11.7,10.13 L12.03,10.13 L12.8,11.49 L13.61,11.49 L12.775,10.075 C13.335,9.925 13.57,9.495 13.57,9.07 C13.57,8.485 13.15,8 12.31,8 L11,8 L11,11.49 L11.7,11.49 Z M12.285,9.605 L11.7,9.605 L11.7,8.58 L12.285,8.58 C12.675,8.58 12.85,8.775 12.85,9.085 C12.85,9.4 12.675,9.605 12.285,9.605 Z M14.905,12.81 L14.905,11.095 C15.075,11.32 15.385,11.535 15.82,11.535 C16.53,11.535 17.085,10.96 17.085,10.095 C17.085,9.23 16.53,8.675 15.82,8.675 C15.39,8.675 15.07,8.885 14.905,9.12 L14.905,8.72 L14.205,8.72 L14.205,12.81 L14.905,12.81 Z M15.635,10.92 C15.26,10.92 14.905,10.63 14.905,10.105 C14.905,9.58 15.26,9.29 15.635,9.29 C16.015,9.29 16.37,9.57 16.37,10.095 C16.37,10.62 16.015,10.92 15.635,10.92 Z" id="Rp" fill="#FFFFFF" fill-rule="nonzero"></path>
            </g>
        </g>
    </g>
</svg>