<?xml version="1.0" encoding="UTF-8"?>
<svg width="30px" height="30px" viewBox="0 0 30 30" version="1.1" xmlns="http://www.w3.org/2000/svg" xmlns:xlink="http://www.w3.org/1999/xlink">
    <!-- Generator: Sketch 63.1 (92452) - https://sketch.com -->
    <title>Group 5</title>
    <desc>Created with Sketch.</desc>
    <defs>
        <linearGradient x1="57.4339456%" y1="57.5892873%" x2="84.9804075%" y2="85.0400096%" id="linearGradient-1">
            <stop stop-color="#C41926" offset="0%"></stop>
            <stop stop-color="#C41926" offset="100%"></stop>
        </linearGradient>
    </defs>
    <g id="Page-1" stroke="none" stroke-width="1" fill="none" fill-rule="evenodd">
        <g id="A4" transform="translate(-180.000000, -240.000000)" fill-rule="nonzero">
            <g id="Group-5" transform="translate(180.000000, 240.000000)">
                <path d="M28.90208,18.4414521 C29.2775819,18.4414521 29.6016549,18.1756771 29.6724577,17.8069267 C29.8487605,16.8886027 29.9415205,15.9405132 29.9415205,14.9707602 C29.9415205,14.0010072 29.8487605,13.0529178 29.6724577,12.1345937 C29.6016549,11.7658434 29.2775819,11.5000683 28.90208,11.5000683 L27.0659603,11.5000683 C26.7319656,11.5000683 26.4361903,11.2880119 26.325348,10.9729802 C26.1803958,10.5611375 26.0137801,10.1595101 25.8266749,9.76950717 C25.682075,9.46815457 25.7410187,9.10879761 25.9773806,8.87249444 L27.2749052,7.57496984 C27.5405628,7.30931223 27.5814241,6.89206834 27.3706593,6.58102878 C26.8360564,5.79209907 26.2284784,5.05665314 25.5569077,4.38508244 L25.556438,4.38461277 C24.8848673,3.71304208 24.1494214,3.10546405 23.3604917,2.57086114 C23.0495108,2.36015503 22.6322082,2.4010164 22.3665506,2.6666153 L21.069026,3.96413989 C20.8326641,4.20050178 20.4733659,4.25944548 20.1720133,4.11484555 C19.782069,3.9277404 19.3804417,3.76112464 18.9685403,3.61617246 C18.6535085,3.50533012 18.4414521,3.20955487 18.4414521,2.87556014 L18.4414521,1.03944043 C18.4414521,0.663938539 18.1756771,0.339865612 17.8069267,0.269062722 C16.8886027,0.0927600046 15.9405132,-1.77635684e-15 14.9707602,-1.77635684e-15 C14.0010072,-1.77635684e-15 13.0529178,0.0927600046 12.1345937,0.269062722 C11.7658434,0.339865612 11.5000683,0.663938539 11.5000683,1.03944043 L11.5000683,2.87556014 C11.5000683,3.20955487 11.2880119,3.50533012 10.9729802,3.61617246 C10.5611375,3.76112464 10.1595101,3.9277404 9.76950717,4.11484555 C9.46815457,4.25944548 9.10879761,4.20050178 8.87249444,3.96413989 L7.57496984,2.6666153 C7.30931223,2.40095769 6.89206834,2.36009632 6.58102878,2.57086114 C5.79204036,3.10546405 5.05653572,3.71310079 4.38490632,4.38473019 L4.38473019,4.38484761 C3.71310079,5.05647701 3.10546405,5.79198165 2.57086114,6.58097007 C2.36015503,6.89195092 2.4010164,7.30925353 2.6666153,7.57491113 L3.96413989,8.87243573 C4.20050178,9.10879761 4.25944548,9.46809586 4.11484555,9.76944846 C3.9277404,10.1593927 3.76112464,10.5610201 3.61617246,10.9729215 C3.50533012,11.2879532 3.20955487,11.5 2.87556014,11.5 L1.03944043,11.5 C0.663938539,11.5 0.339865612,11.7657847 0.269062722,12.134535 C0.0927600046,13.0529178 -3.01980663e-14,14.0010072 -3.01980663e-14,14.9707602 C-3.01980663e-14,15.9405132 0.0927600046,16.8886027 0.269062722,17.8069267 C0.339865612,18.1756771 0.663938539,18.4414521 1.03944043,18.4414521 L2.87556014,18.4414521 C3.20955487,18.4414521 3.50533012,18.6535085 3.61617246,18.9685403 C3.76112464,19.380383 3.9277404,19.7820103 4.11484555,20.1720133 C4.25944548,20.4733659 4.20050178,20.8327229 3.96413989,21.069026 L2.6666153,22.3665506 C2.40095769,22.6322082 2.36009632,23.0494521 2.57086114,23.3604917 C3.10546405,24.1494801 3.71310079,24.8849847 4.38473019,25.5566141 L4.38490632,25.5567316 C5.05653572,26.228361 5.79198165,26.8359977 6.58102878,27.3706006 C6.89200963,27.5813067 7.30931223,27.5404454 7.57496984,27.2748465 L8.87249444,25.9773219 C9.10885632,25.74096 9.46815457,25.6820163 9.76950717,25.8266162 C10.1594514,26.0137214 10.5610788,26.1803371 10.9729802,26.3252893 C11.2880119,26.4361316 11.5000683,26.7319069 11.5000683,27.0659016 L11.5000683,28.9020213 C11.5000683,29.2775232 11.7658434,29.6015961 12.1345937,29.672399 C13.0529178,29.8487605 14.0010072,29.9415205 14.9707602,29.9415205 C15.9405132,29.9415205 16.8886027,29.8487605 17.8069267,29.6724577 C18.1756771,29.6016549 18.4414521,29.2775819 18.4414521,28.90208 L18.4414521,27.0659603 C18.4414521,26.7319656 18.6535085,26.4361903 18.9685403,26.325348 C19.380383,26.1803958 19.7820103,26.0137801 20.1720133,25.8266749 C20.4733659,25.682075 20.8327229,25.7410187 21.069026,25.9773806 L22.3665506,27.2749052 C22.6322082,27.5405628 23.0494521,27.5814241 23.3604917,27.3706593 C24.1494214,26.8360564 24.8848673,26.2284784 25.556438,25.5569077 L25.5569077,25.556438 C26.2284784,24.8848673 26.8360564,24.1494214 27.3706593,23.3604917 C27.5813654,23.0495108 27.5405041,22.6322082 27.2749052,22.3665506 L25.9773806,21.069026 C25.7410187,20.8326641 25.682075,20.4733659 25.8266749,20.1720133 C26.0137801,19.782069 26.1803958,19.3804417 26.325348,18.9685403 C26.4361903,18.6535085 26.7319656,18.4414521 27.0659603,18.4414521 L28.90208,18.4414521 Z" id="Path" fill="#FF1659"></path>
                <circle id="Oval" fill="#B20942" cx="14.9707602" cy="14.9707602" r="9.45981791"></circle>
                <path d="M21.659872,8.28164843 C21.3902222,8.01199862 21.1080674,7.76266208 20.8156973,7.53234721 C23.7403967,11.2449196 23.4910602,16.6417906 20.0663961,20.0663961 C16.6417319,23.4910015 11.2449196,23.7403967 7.53234721,20.8156973 C7.68786699,21.0130765 7.85207568,21.2058764 8.02532554,21.3932751 C8.10863341,21.4833932 8.19405481,21.5135695 8.28158973,21.6011045 C11.9759037,25.2954184 17.9654994,25.2954184 21.6598133,21.6011045 C21.7473482,21.5135695 21.8328283,21.4833932 21.9162536,21.3933338 C25.3520725,17.6829336 25.2665924,11.8883688 21.659872,8.28164843 Z" id="Path" fill="url(#linearGradient-1)"></path>
                <circle id="Oval" fill="#FFE266" cx="14.9707602" cy="11.8281922" r="4.66418438"></circle>
                <path d="M8.28164843,21.659872 C11.9759624,25.354186 17.9655581,25.354186 21.659872,21.659872 C21.7474657,21.5722784 21.8323,21.4829822 21.915784,21.3928641 C20.6482596,18.8395569 18.0146974,17.0842793 14.9707602,17.0842793 C11.9268231,17.0842793 9.29326086,18.8395569 8.0257365,21.3928641 C8.1092205,21.4829822 8.19405481,21.5722784 8.28164843,21.659872 Z" id="Path" fill="#FFE266"></path>
                <path d="M21.915784,21.3928641 C21.5694017,20.6951093 21.120455,20.0575897 20.5895507,19.4985639 C20.4241092,19.6930664 20.2501548,19.8827547 20.0664548,20.0663961 C16.8148644,23.3179865 11.7856283,23.7066979 8.1078702,21.2343502 C8.08021832,21.2869533 8.0522729,21.3394391 8.02579521,21.3928054 C8.1092205,21.4829235 8.19411352,21.5722197 8.28170714,21.6598133 C11.9760211,25.3541273 17.9656168,25.3541273 21.6599307,21.6598133 C21.7474657,21.5722784 21.8323,21.4829822 21.915784,21.3928641 Z" id="Path" fill="#FFCE00"></path>
            </g>
        </g>
    </g>
</svg>